SplineFontDB: 3.0
FontName: Bodoni-24-Fatface
FullName: Bodoni* 24 Fatface
FamilyName: Bodoni* 24 Fatface
Weight: Fatface
Copyright: Copyright (c) 2017, Owen Earl,,, (EwonRael@yahoo.com)
Version: 001.0
ItalicAngle: 0
UnderlinePosition: -409.6
UnderlineWidth: 204.8
Ascent: 3277
Descent: 819
InvalidEm: 0
LayerCount: 2
Layer: 0 0 "Back" 1
Layer: 1 0 "Fore" 0
PreferredKerning: 4
XUID: [1021 31 -699969567 16487490]
FSType: 0
OS2Version: 0
OS2_WeightWidthSlopeOnly: 0
OS2_UseTypoMetrics: 1
CreationTime: 1460762150
ModificationTime: 1565633705
PfmFamily: 17
TTFWeight: 900
TTFWidth: 5
LineGap: 410
VLineGap: 0
OS2TypoAscent: 3277
OS2TypoAOffset: 0
OS2TypoDescent: -819
OS2TypoDOffset: 0
OS2TypoLinegap: 410
OS2WinAscent: 4096
OS2WinAOffset: 0
OS2WinDescent: 1638
OS2WinDOffset: 0
HheadAscent: 4096
HheadAOffset: 0
HheadDescent: -819
HheadDOffset: 0
OS2CapHeight: 700
OS2XHeight: 460
OS2FamilyClass: 768
OS2Vendor: 'PfEd'
OS2UnicodeRanges: 00000001.00000000.00000000.00000000
Lookup: 1 0 0 "'ss02' Style Set 2 lookup 4" { "'ss02' Style Set 2 lookup 4-1"  } ['ss02' ('DFLT' <'dflt' > 'grek' <'dflt' > 'latn' <'dflt' > ) ]
Lookup: 1 0 0 "'ss03' Style Set 3 lookup 5" { "'ss03' Style Set 3 lookup 5-1"  } ['ss03' ('DFLT' <'dflt' > 'grek' <'dflt' > 'latn' <'dflt' > ) ]
Lookup: 1 0 0 "'ss01' Style Set 1 lookup 2" { "'ss01' Style Set 1 lookup 2-1"  } ['ss01' ('DFLT' <'dflt' > 'grek' <'dflt' > 'latn' <'dflt' > ) ]
Lookup: 5 0 0 "'calt' Contextual Alternates lookup 3" { "'calt' Contextual Alternates lookup 3-1"  } ['calt' ('DFLT' <'dflt' > 'grek' <'dflt' > 'latn' <'dflt' > ) ]
Lookup: 4 0 1 "'liga' Standard Ligatures lookup 0" { "'liga' Standard Ligatures lookup 0-1"  } ['liga' ('DFLT' <'dflt' > 'grek' <'dflt' > 'latn' <'dflt' > ) ]
Lookup: 258 0 0 "'kern' Horizontal Kerning lookup 0" { "kerning like they all do" [150,0,6] } ['kern' ('DFLT' <'dflt' > 'grek' <'dflt' > 'latn' <'dflt' > ) ]
MarkAttachClasses: 1
DEI: 91125
KernClass2: 30 27 "kerning like they all do"

StartChar: ampersand
Encoding: 38 38 0
GlifName: ampersand
Width: 3764
Flags: HMW
LayerCount: 2
Fore
SplineSet
2556 1884 m 1
 3539 1884 l 1
 3539 1847 l 1
 2556 1847 l 1
 2556 1884 l 1
3133 1868 m 1
 3031 955 2466 -41 1225 -41 c 0
 475 -41 164 315 164 737 c 0
 164 1421 1139 1597 1458 1790 c 0
 1786 2003 1970 1925 1970 2621 c 0
 1970 2895 1930 3084 1778 3084 c 0
 1647 3084 1581 2920 1581 2744 c 0
 1581 2560 1725 2269 1901 2007 c 2
 3187 37 l 1
 3682 37 l 1
 3682 0 l 1
 2232 0 l 1
 877 2007 l 2
 771 2163 688 2368 688 2511 c 0
 688 2880 1118 3113 1798 3113 c 0
 2441 3113 2806 2937 2806 2634 c 0
 2806 2151 2110 2224 1434 1765 c 0
 1184 1597 1081 1659 1081 1122 c 0
 1081 598 1389 135 1774 135 c 0
 2376 135 3015 938 3097 1868 c 1
 3133 1868 l 1
EndSplineSet
Validated: 5
EndChar

StartChar: period
Encoding: 46 46 1
GlifName: period
Width: 1310
Flags: HMW
LayerCount: 2
Fore
SplineSet
164 451 m 0
 164 721 385 942 655 942 c 0
 925 942 1147 721 1147 451 c 0
 1147 181 925 -41 655 -41 c 0
 385 -41 164 181 164 451 c 0
EndSplineSet
Validated: 1
EndChar

StartChar: zero
Encoding: 48 48 2
GlifName: zero
Width: 2867
Flags: HMW
LayerCount: 2
Fore
SplineSet
1434 -41 m 0
 684 -41 164 623 164 1536 c 0
 164 2449 725 3113 1434 3113 c 0
 2143 3113 2703 2449 2703 1536 c 0
 2703 623 2184 -41 1434 -41 c 0
1434 3080 m 0
 1172 3080 1126 2486 1126 1536 c 0
 1126 586 1131 -8 1434 -8 c 0
 1737 -8 1741 586 1741 1536 c 0
 1741 2486 1737 3080 1434 3080 c 0
EndSplineSet
Validated: 1
EndChar

StartChar: one
Encoding: 49 49 3
GlifName: one
Width: 2273
VWidth: 4730
Flags: HMW
LayerCount: 2
Fore
SplineSet
205 37 m 1
 2068 37 l 1
 2068 0 l 1
 205 0 l 1
 205 37 l 1
274 3072 m 1
 1618 3072 l 1
 1618 20 l 1
 737 20 l 1
 737 3035 l 1
 274 3035 l 1
 274 3072 l 1
EndSplineSet
Validated: 5
EndChar

StartChar: two
Encoding: 50 50 4
GlifName: two
Width: 2662
VWidth: 4730
Flags: HMW
LayerCount: 2
Fore
SplineSet
2519 0 m 1
 164 0 l 1
 164 553 l 1
 1004 1085 l 2
 1352 1310 1532 1581 1532 2089 c 0
 1532 2638 1298 2966 979 2966 c 0
 598 2966 258 2654 250 2269 c 1
 307 2470 492 2630 709 2630 c 0
 1016 2630 1221 2420 1221 2154 c 0
 1221 1867 942 1667 676 1667 c 0
 410 1667 201 1872 201 2249 c 0
 201 2728 647 3113 1331 3113 c 0
 2031 3113 2433 2786 2433 2335 c 0
 2433 1803 1876 1569 1491 1331 c 2
 729 860 l 1
 2482 860 l 1
 2482 1167 l 1
 2519 1167 l 1
 2519 0 l 1
EndSplineSet
Validated: 1
EndChar

StartChar: three
Encoding: 51 51 5
GlifName: three
Width: 2543
VWidth: 4730
Flags: HMW
LayerCount: 2
Fore
SplineSet
2380 860 m 0
 2380 287 1810 -41 1151 -41 c 0
 446 -41 102 385 102 762 c 0
 102 1053 307 1253 573 1253 c 0
 819 1253 999 1073 999 803 c 0
 999 549 783 369 541 369 c 0
 389 369 287 422 221 504 c 1
 319 271 590 33 1012 33 c 0
 1418 33 1475 352 1475 860 c 0
 1475 1286 1359 1642 872 1642 c 1
 872 1671 l 1
 1941 1671 2380 1352 2380 860 c 0
872 1651 m 1
 872 1679 l 1
 1318 1679 1352 2118 1352 2421 c 0
 1352 2765 1274 3039 1032 3039 c 0
 782 3039 540 2896 438 2757 c 1
 508 2839 611 2863 705 2863 c 0
 906 2863 1102 2700 1102 2454 c 0
 1102 2188 889 1999 664 1999 c 0
 418 1999 225 2147 225 2417 c 0
 225 2835 733 3109 1151 3109 c 0
 1769 3109 2257 2831 2257 2380 c 0
 2257 1970 1900 1651 872 1651 c 1
EndSplineSet
Validated: 5
EndChar

StartChar: four
Encoding: 52 52 6
GlifName: four
Width: 2805
VWidth: 4730
Flags: HMW
LayerCount: 2
Fore
SplineSet
2621 37 m 1
 2621 0 l 1
 1044 0 l 1
 1044 37 l 1
 1434 37 l 1
 1434 2626 l 1
 213 901 l 1
 2765 901 l 1
 2765 860 l 1
 143 860 l 1
 1700 3072 l 1
 2314 3072 l 1
 2314 37 l 1
 2621 37 l 1
EndSplineSet
Validated: 5
Substitution2: "'ss03' Style Set 3 lookup 5-1" four.alt
EndChar

StartChar: five
Encoding: 53 53 7
GlifName: five
Width: 2334
VWidth: 4730
Flags: HMW
LayerCount: 2
Fore
SplineSet
2068 2212 m 1
 229 2212 l 1
 229 1380 l 1
 193 1380 l 1
 193 3072 l 1
 2032 3072 l 1
 2032 3297 l 1
 2068 3297 l 1
 2068 2212 l 1
143 307 m 1
 209 151 479 12 745 12 c 0
 1110 12 1290 332 1290 881 c 0
 1290 1512 1168 1729 844 1729 c 0
 586 1729 348 1589 246 1380 c 1
 213 1380 l 1
 319 1613 577 1802 1032 1802 c 0
 1732 1802 2212 1495 2212 881 c 0
 2212 308 1626 -41 885 -41 c 0
 426 -41 -41 151 -41 610 c 0
 -41 901 172 1110 438 1110 c 0
 704 1110 918 942 918 655 c 0
 918 389 680 164 414 164 c 0
 291 164 204 221 143 307 c 1
EndSplineSet
Validated: 5
EndChar

StartChar: six
Encoding: 54 54 8
GlifName: six
Width: 2703
VWidth: 4730
Flags: HMW
LayerCount: 2
Fore
SplineSet
1638 1024 m 0
 1638 1778 1557 1929 1397 1929 c 0
 1213 1929 1147 1761 1147 1147 c 1
 1118 1147 l 1
 1118 1716 1135 2028 1561 2028 c 0
 2057 2028 2580 1720 2580 1024 c 0
 2580 410 2109 -41 1409 -41 c 0
 709 -41 205 410 205 1270 c 0
 205 2265 1032 3113 2273 3113 c 1
 2273 3080 l 1
 1519 3080 1139 2241 1139 1438 c 1
 1147 1147 l 1
 1147 393 1220 -4 1421 -4 c 0
 1622 -4 1638 352 1638 1024 c 0
EndSplineSet
Validated: 5
EndChar

StartChar: seven
Encoding: 55 55 9
GlifName: seven
Width: 2355
VWidth: 4730
Flags: HMW
LayerCount: 2
Fore
SplineSet
524 434 m 0
 524 758 983 1106 1307 1548 c 0
 1430 1716 1516 1835 1733 2191 c 1
 201 2191 l 1
 201 1884 l 1
 164 1884 l 1
 164 3072 l 1
 2314 3072 l 1
 2314 3072 1757 2097 1401 1589 c 0
 1184 1278 1139 1229 1139 1114 c 0
 1139 897 1548 835 1548 442 c 0
 1548 168 1343 -41 1040 -41 c 0
 757 -41 524 110 524 434 c 0
EndSplineSet
Validated: 1
EndChar

StartChar: eight
Encoding: 56 56 10
GlifName: eight
Width: 2662
VWidth: 4730
Flags: HMW
LayerCount: 2
Fore
SplineSet
1147 2294 m 0
 1147 1745 1212 1618 1331 1618 c 0
 1450 1618 1516 1745 1516 2294 c 0
 1516 2802 1450 3031 1331 3031 c 0
 1212 3031 1147 2802 1147 2294 c 0
246 2294 m 0
 246 2745 631 3113 1331 3113 c 0
 2031 3113 2417 2745 2417 2294 c 0
 2417 1843 2031 1556 1331 1556 c 0
 631 1556 246 1843 246 2294 c 0
1065 778 m 0
 1065 311 1130 41 1331 41 c 0
 1532 41 1597 311 1597 778 c 0
 1597 1245 1532 1536 1331 1536 c 0
 1130 1536 1065 1245 1065 778 c 0
164 778 m 0
 164 1270 549 1597 1331 1597 c 0
 2113 1597 2499 1270 2499 778 c 0
 2499 286 2113 -41 1331 -41 c 0
 549 -41 164 286 164 778 c 0
EndSplineSet
Validated: 5
EndChar

StartChar: A
Encoding: 65 65 12
GlifName: A_
Width: 3399
Flags: HMW
LayerCount: 2
Fore
SplineSet
61 37 m 1
 963 37 l 1
 963 0 l 1
 61 0 l 1
 61 37 l 1
1741 37 m 1
 3338 37 l 1
 3338 0 l 1
 1741 0 l 1
 1741 37 l 1
791 1024 m 1
 2109 1024 l 1
 2109 983 l 1
 791 983 l 1
 791 1024 l 1
1278 2306 m 1
 467 0 l 1
 422 0 l 1
 1532 3133 l 1
 1966 3133 l 1
 3052 0 l 1
 2028 0 l 1
 1278 2306 l 1
EndSplineSet
Validated: 5
EndChar

StartChar: B
Encoding: 66 66 13
GlifName: B_
Width: 3133
Flags: HMW
LayerCount: 2
Fore
SplineSet
1659 1565 m 2
 1126 1565 l 1
 1126 1597 l 1
 1495 1597 l 2
 1765 1597 1946 1786 1946 2273 c 0
 1946 2760 1765 3035 1495 3035 c 2
 61 3035 l 1
 61 3072 l 1
 1659 3072 l 2
 2400 3072 2847 2846 2847 2314 c 0
 2847 1822 2441 1565 1659 1565 c 2
430 3072 m 1
 1311 3072 l 1
 1311 0 l 1
 430 0 l 1
 430 3072 l 1
1741 0 m 2
 61 0 l 1
 61 37 l 1
 1536 37 l 2
 1847 37 2028 373 2028 860 c 0
 2028 1347 1847 1556 1536 1556 c 2
 1126 1556 l 1
 1126 1589 l 1
 1741 1589 l 2
 2441 1589 2970 1392 2970 778 c 0
 2970 205 2523 0 1741 0 c 2
EndSplineSet
Validated: 5
EndChar

StartChar: C
Encoding: 67 67 14
GlifName: C_
Width: 3010
Flags: HMW
LayerCount: 2
Fore
SplineSet
2777 3072 m 1
 2806 3072 l 1
 2806 2109 l 1
 2712 2273 2416 2732 2273 2875 c 1
 2777 3072 l 1
2806 2109 m 1
 2765 2109 l 1
 2470 2662 2207 3052 1761 3052 c 0
 1253 3052 1126 2281 1126 1536 c 0
 1126 791 1253 20 1761 20 c 0
 2310 20 2536 439 2806 963 c 1
 2847 963 l 1
 2601 377 2306 -41 1720 -41 c 0
 725 -41 164 623 164 1536 c 0
 164 2449 725 3113 1720 3113 c 0
 2244 3113 2519 2695 2806 2109 c 1
2847 963 m 1
 2847 0 l 1
 2818 0 l 1
 2343 213 l 1
 2495 360 2773 811 2847 963 c 1
EndSplineSet
Validated: 5
EndChar

StartChar: D
Encoding: 68 68 15
GlifName: D_
Width: 3338
Flags: HMW
LayerCount: 2
Fore
SplineSet
430 3072 m 1
 1311 3072 l 1
 1311 0 l 1
 430 0 l 1
 430 3072 l 1
1536 0 m 2
 61 0 l 1
 61 37 l 1
 1536 37 l 2
 2044 37 2212 668 2212 1536 c 0
 2212 2404 2003 3035 1536 3035 c 2
 61 3035 l 1
 61 3072 l 1
 1536 3072 l 2
 2572 3072 3174 2490 3174 1536 c 0
 3174 582 2531 0 1536 0 c 2
EndSplineSet
Validated: 5
EndChar

StartChar: E
Encoding: 69 69 16
GlifName: E_
Width: 2744
Flags: HMW
LayerCount: 2
Fore
SplineSet
2585 922 m 1
 2621 922 l 1
 2621 0 l 1
 61 0 l 1
 61 37 l 1
 1516 37 l 2
 2077 37 2462 402 2585 922 c 1
430 3072 m 1
 1311 3072 l 1
 1311 0 l 1
 430 0 l 1
 430 3072 l 1
61 3072 m 1
 2580 3072 l 1
 2580 2232 l 1
 2544 2232 l 1
 2421 2670 2035 3035 1556 3035 c 2
 61 3035 l 1
 61 3072 l 1
1970 1016 m 1
 1847 1290 1585 1569 1352 1569 c 2
 1106 1569 l 1
 1106 1610 l 1
 1352 1610 l 2
 1585 1610 1847 1868 1970 2142 c 1
 2007 2142 l 1
 2007 1016 l 1
 1970 1016 l 1
EndSplineSet
Validated: 5
EndChar

StartChar: F
Encoding: 70 70 17
GlifName: F_
Width: 2621
Flags: HMW
LayerCount: 2
Fore
SplineSet
61 3072 m 1
 2499 3072 l 1
 2499 2232 l 1
 2462 2232 l 1
 2339 2670 2035 3035 1597 3035 c 2
 61 3035 l 1
 61 3072 l 1
61 37 m 1
 1720 37 l 1
 1720 0 l 1
 61 0 l 1
 61 37 l 1
430 3072 m 1
 1311 3072 l 1
 1311 0 l 1
 430 0 l 1
 430 3072 l 1
1929 934 m 1
 1806 1208 1605 1507 1331 1507 c 2
 1065 1507 l 1
 1065 1548 l 1
 1331 1548 l 2
 1605 1548 1806 1827 1929 2101 c 1
 1966 2101 l 1
 1966 934 l 1
 1929 934 l 1
EndSplineSet
Validated: 5
EndChar

StartChar: G
Encoding: 71 71 18
GlifName: G_
Width: 3276
Flags: HMW
LayerCount: 2
Fore
SplineSet
2970 2109 m 1
 2814 2502 2548 2748 2351 2908 c 1
 2941 3072 l 1
 2970 3072 l 1
 2970 2109 l 1
1720 1188 m 1
 3236 1188 l 1
 3236 1147 l 1
 1720 1147 l 1
 1720 1188 l 1
2150 1159 m 1
 3072 1159 l 1
 3072 594 l 1
 2662 295 2409 -41 1741 -41 c 0
 766 -41 164 541 164 1536 c 0
 164 2531 971 3113 1802 3113 c 0
 2326 3113 2843 2613 2970 2109 c 1
 2933 2109 l 1
 2769 2486 2388 3047 1872 3047 c 0
 1364 3047 1126 2281 1126 1536 c 0
 1126 791 1254 12 1741 12 c 0
 1921 12 2068 258 2150 512 c 1
 2150 1159 l 1
EndSplineSet
Validated: 5
EndChar

StartChar: H
Encoding: 72 72 19
GlifName: H_
Width: 3481
Flags: HMW
LayerCount: 2
Fore
SplineSet
1229 1536 m 1
 2253 1536 l 1
 2253 1495 l 1
 1229 1495 l 1
 1229 1536 l 1
1843 37 m 1
 3420 37 l 1
 3420 0 l 1
 1843 0 l 1
 1843 37 l 1
61 37 m 1
 1638 37 l 1
 1638 0 l 1
 61 0 l 1
 61 37 l 1
1843 3072 m 1
 3420 3072 l 1
 3420 3035 l 1
 1843 3035 l 1
 1843 3072 l 1
61 3072 m 1
 1638 3072 l 1
 1638 3035 l 1
 61 3035 l 1
 61 3072 l 1
2171 3072 m 1
 3052 3072 l 1
 3052 0 l 1
 2171 0 l 1
 2171 3072 l 1
430 3072 m 1
 1311 3072 l 1
 1311 0 l 1
 430 0 l 1
 430 3072 l 1
EndSplineSet
Validated: 5
EndChar

StartChar: I
Encoding: 73 73 20
GlifName: I_
Width: 1945
Flags: HMW
LayerCount: 2
Fore
SplineSet
61 37 m 1
 1884 37 l 1
 1884 0 l 1
 61 0 l 1
 61 37 l 1
61 3072 m 1
 1884 3072 l 1
 1884 3035 l 1
 61 3035 l 1
 61 3072 l 1
512 3072 m 1
 1393 3072 l 1
 1393 0 l 1
 512 0 l 1
 512 3072 l 1
EndSplineSet
Validated: 5
EndChar

StartChar: J
Encoding: 74 74 21
GlifName: J_
Width: 2625
Flags: HMW
LayerCount: 2
Fore
SplineSet
741 3072 m 1
 2564 3072 l 1
 2564 3035 l 1
 741 3035 l 1
 741 3072 l 1
1274 3072 m 1
 2154 3072 l 1
 2154 696 l 1
 1908 204 1626 -123 926 -123 c 0
 406 -123 41 102 41 512 c 0
 41 807 274 1024 561 1024 c 0
 827 1024 1036 828 1036 537 c 0
 1036 291 840 49 582 49 c 0
 443 49 315 90 254 147 c 1
 373 -9 635 -82 897 -82 c 0
 1188 -82 1274 205 1274 778 c 2
 1274 3072 l 1
EndSplineSet
Validated: 5
Substitution2: "'ss02' Style Set 2 lookup 4-1" J.alt
EndChar

StartChar: K
Encoding: 75 75 22
GlifName: K_
Width: 3502
Flags: HMW
LayerCount: 2
Fore
SplineSet
61 37 m 1
 1638 37 l 1
 1638 0 l 1
 61 0 l 1
 61 37 l 1
61 3072 m 1
 1720 3072 l 1
 1720 3035 l 1
 61 3035 l 1
 61 3072 l 1
430 3072 m 1
 1311 3072 l 1
 1311 0 l 1
 430 0 l 1
 430 3072 l 1
762 889 m 1
 705 889 l 1
 2810 3064 l 1
 2867 3064 l 1
 762 889 l 1
1802 37 m 1
 3482 37 l 1
 3482 0 l 1
 1802 0 l 1
 1802 37 l 1
3297 3035 m 1
 2314 3035 l 1
 2314 3072 l 1
 3297 3072 l 1
 3297 3035 l 1
3162 0 m 1
 2179 0 l 1
 1323 1495 l 1
 1917 2122 l 1
 3162 0 l 1
EndSplineSet
Validated: 5
EndChar

StartChar: L
Encoding: 76 76 23
GlifName: L_
Width: 2703
Flags: HMWO
LayerCount: 2
Fore
SplineSet
430 3072 m 1
 1311 3072 l 1
 1311 0 l 1
 430 0 l 1
 430 3072 l 1
61 3072 m 5
 1679 3072 l 5
 1679 3035 l 1
 61 3035 l 1
 61 3072 l 5
2621 0 m 1
 61 0 l 1
 61 37 l 1
 1516 37 l 2
 2077 37 2462 402 2585 922 c 1
 2621 922 l 1
 2621 0 l 1
EndSplineSet
EndChar

StartChar: M
Encoding: 77 77 24
GlifName: M_
Width: 3850
Flags: HMW
LayerCount: 2
Fore
SplineSet
3789 3072 m 1
 3789 3035 l 1
 3502 3035 l 1
 3502 0 l 1
 2621 0 l 1
 2621 3072 l 1
 3789 3072 l 1
82 37 m 1
 721 37 l 1
 721 0 l 1
 82 0 l 1
 82 37 l 1
2294 37 m 1
 3789 37 l 1
 3789 0 l 1
 2294 0 l 1
 2294 37 l 1
1958 1221 m 1
 2601 3072 l 1
 2642 3072 l 1
 1565 -41 l 1
 1520 -41 l 1
 381 3072 l 1
 1266 3072 l 1
 1958 1221 l 1
373 3035 m 1
 61 3035 l 1
 61 3072 l 1
 414 3072 l 1
 414 0 l 1
 373 0 l 1
 373 3035 l 1
EndSplineSet
Validated: 5
EndChar

StartChar: N
Encoding: 78 78 25
GlifName: N_
Width: 3162
Flags: HMW
LayerCount: 2
Fore
SplineSet
2634 3072 m 1
 2675 3072 l 1
 2675 -41 l 1
 2613 -41 l 1
 471 3072 l 1
 1516 3072 l 1
 2634 1462 l 1
 2634 3072 l 1
2183 3072 m 1
 3105 3072 l 1
 3105 3035 l 1
 2183 3035 l 1
 2183 3072 l 1
61 37 m 1
 975 37 l 1
 975 0 l 1
 61 0 l 1
 61 37 l 1
475 3035 m 1
 61 3035 l 1
 61 3072 l 1
 516 3072 l 1
 516 0 l 1
 475 0 l 1
 475 3035 l 1
EndSplineSet
Validated: 5
EndChar

StartChar: O
Encoding: 79 79 26
GlifName: O_
Width: 3276
Flags: HMW
LayerCount: 2
Fore
SplineSet
1638 -41 m 0
 725 -41 164 623 164 1536 c 0
 164 2449 766 3113 1638 3113 c 0
 2510 3113 3113 2449 3113 1536 c 0
 3113 623 2551 -41 1638 -41 c 0
1638 3080 m 0
 1253 3080 1126 2486 1126 1536 c 0
 1126 586 1212 -8 1638 -8 c 0
 2064 -8 2150 586 2150 1536 c 0
 2150 2486 2023 3080 1638 3080 c 0
EndSplineSet
Validated: 1
EndChar

StartChar: P
Encoding: 80 80 27
GlifName: P_
Width: 3010
Flags: HMW
LayerCount: 2
Fore
SplineSet
430 3072 m 1
 1311 3072 l 1
 1311 0 l 1
 430 0 l 1
 430 3072 l 1
61 37 m 1
 1679 37 l 1
 1679 0 l 1
 61 0 l 1
 61 37 l 1
1679 1372 m 2
 1024 1372 l 1
 1024 1413 l 1
 1516 1413 l 2
 1827 1413 1925 1847 1925 2212 c 0
 1925 2577 1827 3035 1516 3035 c 2
 61 3035 l 1
 61 3072 l 1
 1679 3072 l 2
 2502 3072 2867 2744 2867 2212 c 0
 2867 1680 2502 1372 1679 1372 c 2
EndSplineSet
Validated: 5
EndChar

StartChar: Q
Encoding: 81 81 28
GlifName: Q_
Width: 3276
Flags: HMW
LayerCount: 2
Fore
SplineSet
1638 -41 m 0
 725 -41 164 623 164 1536 c 0
 164 2449 766 3113 1638 3113 c 0
 2510 3113 3113 2449 3113 1536 c 0
 3113 623 2551 -41 1638 -41 c 0
1638 3080 m 0
 1253 3080 1126 2486 1126 1536 c 0
 1126 586 1212 -8 1638 -8 c 0
 2064 -8 2150 586 2150 1536 c 0
 2150 2486 2023 3080 1638 3080 c 0
2580 -987 m 1
 2580 -1024 l 1
 1421 -1024 1147 -872 1147 41 c 1
 1475 -41 1798 -41 2109 41 c 1
 2109 -704 2113 -987 2580 -987 c 1
EndSplineSet
Validated: 37
EndChar

StartChar: R
Encoding: 82 82 29
GlifName: R_
Width: 3235
Flags: HMW
LayerCount: 2
Fore
SplineSet
1577 1569 m 2
 799 1569 l 1
 799 1597 l 1
 1372 1597 l 2
 1765 1597 1946 1786 1946 2314 c 0
 1946 2842 1765 3035 1372 3035 c 2
 61 3035 l 1
 61 3072 l 1
 1577 3072 l 2
 2318 3072 2847 2846 2847 2314 c 0
 2847 1782 2359 1569 1577 1569 c 2
61 37 m 1
 1679 37 l 1
 1679 0 l 1
 61 0 l 1
 61 37 l 1
430 3072 m 1
 1311 3072 l 1
 1311 0 l 1
 430 0 l 1
 430 3072 l 1
3195 61 m 1
 3129 24 2891 -41 2580 -41 c 0
 1298 -41 2401 1556 1393 1556 c 2
 799 1556 l 1
 799 1577 l 1
 1966 1577 l 2
 3248 1577 2453 41 2957 41 c 0
 3043 41 3126 69 3183 94 c 1
 3195 61 l 1
EndSplineSet
Validated: 5
Substitution2: "'ss01' Style Set 1 lookup 2-1" R.alt
EndChar

StartChar: S
Encoding: 83 83 30
GlifName: S_
Width: 2600
Flags: HMW
LayerCount: 2
Fore
SplineSet
2273 2109 m 1
 2232 2109 l 1
 1986 2650 1675 3064 1192 3064 c 0
 922 3064 778 2884 778 2642 c 0
 778 2007 2437 2171 2437 942 c 0
 2437 328 1909 -61 1331 -61 c 0
 692 -61 385 552 164 1044 c 1
 205 1044 l 1
 418 585 729 -16 1315 -16 c 0
 1667 -16 1864 229 1864 512 c 0
 1864 1229 205 921 205 2232 c 0
 205 2805 680 3113 1176 3113 c 0
 1700 3113 2027 2687 2273 2109 c 1
2245 3113 m 1
 2273 3113 l 1
 2273 2109 l 1
 2175 2330 1884 2777 1741 2908 c 1
 2245 3113 l 1
193 -41 m 1
 164 -41 l 1
 164 1044 l 1
 283 786 598 295 725 180 c 1
 193 -41 l 1
EndSplineSet
Validated: 5
EndChar

StartChar: T
Encoding: 84 84 31
GlifName: T_
Width: 2969
Flags: HMW
LayerCount: 2
Fore
SplineSet
594 37 m 1
 2376 37 l 1
 2376 0 l 1
 594 0 l 1
 594 37 l 1
1044 3052 m 1
 1925 3052 l 1
 1925 0 l 1
 1044 0 l 1
 1044 3052 l 1
2048 3035 m 2
 922 3035 l 2
 525 3035 221 2548 98 2028 c 1
 61 2028 l 1
 61 3072 l 1
 2908 3072 l 1
 2908 2028 l 1
 2871 2028 l 1
 2748 2548 2445 3035 2048 3035 c 2
EndSplineSet
Validated: 5
EndChar

StartChar: U
Encoding: 85 85 32
GlifName: U_
Width: 3072
Flags: HMW
LayerCount: 2
Fore
SplineSet
2212 3072 m 1
 3011 3072 l 1
 3011 3035 l 1
 2212 3035 l 1
 2212 3072 l 1
61 3072 m 1
 1720 3072 l 1
 1720 3035 l 1
 61 3035 l 1
 61 3072 l 1
2580 3072 m 1
 2621 3072 l 1
 2621 942 l 2
 2621 266 2306 -61 1618 -61 c 0
 787 -61 430 233 430 942 c 2
 430 3072 l 1
 1311 3072 l 1
 1311 983 l 2
 1311 442 1384 25 1851 25 c 0
 2244 25 2580 287 2580 942 c 2
 2580 3072 l 1
EndSplineSet
Validated: 5
EndChar

StartChar: V
Encoding: 86 86 33
GlifName: V_
Width: 3358
Flags: HMW
LayerCount: 2
Fore
SplineSet
3318 3035 m 1
 2417 3035 l 1
 2417 3072 l 1
 3318 3072 l 1
 3318 3035 l 1
1802 3035 m 1
 41 3035 l 1
 41 3072 l 1
 1802 3072 l 1
 1802 3035 l 1
2101 766 m 1
 2912 3072 l 1
 2957 3072 l 1
 1847 -61 l 1
 1413 -61 l 1
 328 3072 l 1
 1352 3072 l 1
 2101 766 l 1
EndSplineSet
Validated: 5
EndChar

StartChar: W
Encoding: 87 87 34
GlifName: W_
Width: 5038
Flags: HMW
LayerCount: 2
Fore
SplineSet
2757 1946 m 1
 1991 -41 l 1
 1618 -41 l 1
 324 3072 l 1
 1356 3072 l 1
 2277 831 l 1
 2740 2023 l 1
 2757 1946 l 1
3154 1868 m 1
 3138 1942 l 1
 3600 3072 l 1
 3641 3072 l 1
 3154 1868 l 1
4997 3035 m 1
 4178 3035 l 1
 4178 3072 l 1
 4997 3072 l 1
 4997 3035 l 1
2789 3072 m 1
 3711 831 l 1
 4588 3072 l 1
 4628 3072 l 1
 3424 -41 l 1
 3178 -41 l 1
 1880 3072 l 1
 2789 3072 l 1
4014 3035 m 1
 41 3035 l 1
 41 3072 l 1
 4014 3072 l 1
 4014 3035 l 1
EndSplineSet
Validated: 5
EndChar

StartChar: X
Encoding: 88 88 35
GlifName: X_
Width: 3481
Flags: HMW
LayerCount: 2
Fore
SplineSet
1769 1544 m 1
 1716 1544 l 1
 2769 3064 l 1
 2814 3064 l 1
 1769 1544 l 1
508 0 m 1
 455 0 l 1
 1667 1708 l 1
 1720 1708 l 1
 508 0 l 1
1802 37 m 1
 3441 37 l 1
 3441 0 l 1
 1802 0 l 1
 1802 37 l 1
41 37 m 1
 1024 37 l 1
 1024 0 l 1
 41 0 l 1
 41 37 l 1
1823 3035 m 1
 184 3035 l 1
 184 3072 l 1
 1823 3072 l 1
 1823 3035 l 1
3215 3035 m 1
 2314 3035 l 1
 2314 3072 l 1
 3215 3072 l 1
 3215 3035 l 1
3178 0 m 1
 2195 0 l 1
 430 3072 l 1
 1397 3072 l 1
 3178 0 l 1
EndSplineSet
Validated: 5
EndChar

StartChar: Y
Encoding: 89 89 36
GlifName: Y_
Width: 3133
Flags: HMW
LayerCount: 2
Fore
SplineSet
3092 3035 m 1
 2232 3035 l 1
 2232 3072 l 1
 3092 3072 l 1
 3092 3035 l 1
1720 3035 m 1
 41 3035 l 1
 41 3072 l 1
 1720 3072 l 1
 1720 3035 l 1
799 37 m 1
 2458 37 l 1
 2458 0 l 1
 799 0 l 1
 799 37 l 1
2032 1634 m 1
 2712 3064 l 1
 2761 3064 l 1
 2048 1569 l 1
 2048 0 l 1
 1167 0 l 1
 1167 1475 l 1
 287 3072 l 1
 1311 3072 l 1
 2032 1634 l 1
EndSplineSet
Validated: 5
EndChar

StartChar: Z
Encoding: 90 90 37
GlifName: Z_
Width: 2764
Flags: HMW
LayerCount: 2
Fore
SplineSet
123 3072 m 1
 2580 3072 l 1
 2580 3035 l 1
 1044 37 l 1
 1638 37 l 2
 2199 37 2421 381 2585 901 c 1
 2621 901 l 1
 2621 0 l 1
 41 0 l 1
 41 37 l 1
 1577 3035 l 1
 1106 3035 l 2
 545 3035 324 2691 160 2253 c 1
 123 2253 l 1
 123 3072 l 1
EndSplineSet
Validated: 1
EndChar

StartChar: a
Encoding: 97 97 38
GlifName: a
Width: 2596
VWidth: 4730
Flags: HMW
LayerCount: 2
Fore
SplineSet
2593 258 m 1
 2499 53 2245 -41 1946 -41 c 0
 1631 -41 1364 57 1364 340 c 2
 1364 1249 l 2
 1364 1605 1237 1872 950 1872 c 0
 782 1872 635 1810 569 1765 c 1
 848 1863 1139 1720 1139 1466 c 0
 1139 1261 917 1110 692 1110 c 0
 446 1110 274 1270 274 1458 c 0
 274 1732 630 1917 1085 1917 c 0
 1822 1917 2142 1663 2142 1249 c 2
 2142 221 l 2
 2142 139 2196 78 2294 78 c 0
 2360 78 2478 110 2564 270 c 1
 2593 258 l 1
1028 1049 m 2
 1577 1049 l 1
 1577 1008 l 1
 1315 1008 l 2
 1127 1008 958 799 958 545 c 0
 958 344 1020 246 1122 246 c 0
 1204 246 1364 327 1364 741 c 1
 1393 741 l 1
 1393 233 1139 -41 684 -41 c 0
 360 -41 131 160 131 463 c 0
 131 807 446 1049 1028 1049 c 2
EndSplineSet
Validated: 37
EndChar

StartChar: b
Encoding: 98 98 39
GlifName: b
Width: 2727
VWidth: 4730
Flags: HMW
LayerCount: 2
Fore
SplineSet
1085 942 m 0
 1085 1565 1315 1921 1753 1921 c 0
 2199 1921 2621 1556 2621 942 c 0
 2621 328 2199 -41 1753 -41 c 0
 1319 -41 1085 319 1085 942 c 0
1114 942 m 0
 1114 356 1364 53 1552 53 c 0
 1691 53 1741 311 1741 942 c 0
 1741 1573 1691 1827 1552 1827 c 0
 1364 1827 1114 1528 1114 942 c 0
336 3035 m 1
 49 3035 l 1
 49 3072 l 1
 1114 3072 l 1
 1114 0 l 1
 49 0 l 1
 49 37 l 1
 336 37 l 1
 336 3035 l 1
EndSplineSet
Validated: 5
EndChar

StartChar: c
Encoding: 99 99 40
GlifName: c
Width: 2224
VWidth: 4730
Flags: HMW
LayerCount: 2
Fore
SplineSet
1864 1659 m 1
 1786 1753 1556 1876 1331 1876 c 0
 1048 1876 1032 1327 1032 942 c 0
 1032 475 1122 41 1380 41 c 0
 1683 41 1926 254 2028 586 c 1
 2068 586 l 1
 1962 230 1704 -41 1208 -41 c 0
 549 -41 111 246 111 942 c 0
 111 1556 492 1925 1233 1925 c 0
 1692 1925 2097 1671 2097 1335 c 0
 2097 1085 1925 938 1679 938 c 0
 1454 938 1241 1045 1241 1352 c 0
 1241 1618 1462 1741 1622 1741 c 0
 1749 1741 1815 1708 1864 1659 c 1
EndSplineSet
Validated: 1
EndChar

StartChar: d
Encoding: 100 100 41
GlifName: d
Width: 2727
VWidth: 4730
Flags: HMW
LayerCount: 2
Fore
SplineSet
1647 942 m 0
 1647 319 1417 -41 979 -41 c 0
 533 -41 111 328 111 942 c 0
 111 1556 533 1921 979 1921 c 0
 1413 1921 1647 1565 1647 942 c 0
1618 942 m 0
 1618 1556 1356 1827 1180 1827 c 0
 1041 1827 991 1589 991 942 c 0
 991 295 1057 70 1196 70 c 0
 1372 70 1618 328 1618 942 c 0
2683 37 m 1
 2683 0 l 1
 1618 0 l 1
 1618 3035 l 1
 1331 3035 l 1
 1331 3072 l 1
 2396 3072 l 1
 2396 37 l 1
 2683 37 l 1
EndSplineSet
Validated: 5
EndChar

StartChar: e
Encoding: 101 101 42
GlifName: e
Width: 2215
VWidth: 4730
Flags: HMW
LayerCount: 2
Fore
SplineSet
385 1049 m 1
 385 1090 l 1
 1323 1090 l 1
 1319 1475 1315 1888 1155 1888 c 0
 995 1888 950 1491 950 1024 c 0
 950 434 1015 33 1339 33 c 0
 1683 33 1971 258 2073 586 c 1
 2109 586 l 1
 2003 230 1704 -41 1167 -41 c 0
 549 -41 111 287 111 942 c 0
 111 1597 537 1925 1155 1925 c 0
 1765 1925 2105 1495 2105 1049 c 1
 385 1049 l 1
EndSplineSet
Validated: 5
EndChar

StartChar: f
Encoding: 102 102 43
GlifName: f
Width: 1732
VWidth: 4730
Flags: HMW
LayerCount: 2
Fore
SplineSet
29 37 m 1
 1626 37 l 1
 1626 0 l 1
 29 0 l 1
 29 37 l 1
29 1884 m 1
 1708 1884 l 1
 1708 1847 l 1
 29 1847 l 1
 29 1884 l 1
2064 2843 m 1
 2003 2921 1868 3076 1589 3076 c 0
 1261 3076 1135 2732 1135 2212 c 2
 1135 0 l 1
 397 0 l 1
 397 2097 l 2
 397 2715 918 3113 1573 3113 c 0
 1946 3113 2200 2859 2200 2585 c 0
 2200 2335 2048 2167 1802 2167 c 0
 1577 2167 1368 2306 1368 2552 c 0
 1368 2785 1552 2957 1761 2957 c 0
 1900 2957 2007 2900 2064 2843 c 1
EndSplineSet
Validated: 5
EndChar

StartChar: g
Encoding: 103 103 44
GlifName: g
Width: 2744
VWidth: 4730
Flags: HMW
LayerCount: 2
Fore
SplineSet
180 254 m 0
 180 590 737 688 1126 688 c 1
 1122 668 l 1
 946 668 623 627 623 508 c 0
 623 418 836 406 1061 406 c 0
 1204 406 1360 410 1475 410 c 0
 1782 410 2200 221 2200 -336 c 0
 2200 -832 1790 -1065 1135 -1065 c 0
 631 -1065 49 -943 49 -578 c 0
 49 -230 541 -188 725 -188 c 2
 766 -188 l 1
 664 -241 643 -418 643 -467 c 0
 643 -827 865 -1020 1176 -1020 c 0
 1504 -1020 1987 -955 1987 -590 c 0
 1987 -369 1728 -242 1462 -242 c 0
 1335 -242 1085 -242 995 -242 c 0
 626 -242 180 -123 180 254 c 0
950 1290 m 0
 950 905 971 692 1090 692 c 0
 1168 692 1229 905 1229 1290 c 0
 1229 1675 1168 1888 1090 1888 c 0
 1012 1888 950 1675 950 1290 c 0
152 1290 m 0
 152 1741 635 1925 1090 1925 c 0
 1545 1925 2028 1741 2028 1290 c 0
 2028 839 1545 655 1090 655 c 0
 635 655 152 839 152 1290 c 0
2621 1642 m 1
 2584 1753 2462 1868 2253 1868 c 0
 2024 1868 1794 1757 1712 1401 c 1
 1679 1421 l 1
 1761 1794 2007 1905 2253 1905 c 0
 2585 1905 2720 1667 2720 1511 c 0
 2720 1245 2551 1163 2408 1163 c 0
 2265 1163 2101 1253 2101 1470 c 0
 2101 1626 2216 1765 2392 1765 c 0
 2507 1765 2596 1699 2621 1642 c 1
EndSplineSet
Validated: 5
EndChar

StartChar: h
Encoding: 104 104 45
GlifName: h
Width: 2695
VWidth: 4730
Flags: HMW
LayerCount: 2
Fore
SplineSet
1585 1311 m 2
 1585 1655 1553 1700 1438 1700 c 0
 1250 1700 1114 1306 1114 913 c 1
 1085 913 l 1
 1085 1331 1196 1925 1782 1925 c 0
 2220 1925 2363 1663 2363 1307 c 2
 2363 0 l 1
 1585 0 l 1
 1585 1311 l 2
1421 37 m 1
 2650 37 l 1
 2650 0 l 1
 1421 0 l 1
 1421 37 l 1
49 37 m 1
 1278 37 l 1
 1278 0 l 1
 49 0 l 1
 49 37 l 1
336 3035 m 1
 49 3035 l 1
 49 3072 l 1
 1114 3072 l 1
 1114 0 l 1
 336 0 l 1
 336 3035 l 1
EndSplineSet
Validated: 5
EndChar

StartChar: i
Encoding: 105 105 46
GlifName: i
Width: 1429
VWidth: 4730
Flags: HMW
LayerCount: 2
Fore
SplineSet
70 37 m 1
 1421 37 l 1
 1421 0 l 1
 70 0 l 1
 70 37 l 1
254 2662 m 0
 254 2920 447 3113 705 3113 c 0
 963 3113 1155 2920 1155 2662 c 0
 1155 2404 963 2212 705 2212 c 0
 447 2212 254 2404 254 2662 c 0
356 1847 m 1
 70 1847 l 1
 70 1884 l 1
 1135 1884 l 1
 1135 0 l 1
 356 0 l 1
 356 1847 l 1
EndSplineSet
Validated: 5
EndChar

StartChar: j
Encoding: 106 106 47
GlifName: j
Width: 1474
VWidth: 4730
Flags: HMW
LayerCount: 2
Fore
SplineSet
324 2662 m 0
 324 2920 516 3113 774 3113 c 0
 1032 3113 1225 2920 1225 2662 c 0
 1225 2404 1032 2212 774 2212 c 0
 516 2212 324 2404 324 2662 c 0
1196 1884 m 1
 1196 -49 l 2
 1196 -586 675 -1065 61 -1065 c 0
 -353 -1065 -688 -848 -688 -541 c 0
 -688 -295 -483 -119 -250 -119 c 0
 -25 -119 184 -258 184 -504 c 0
 184 -729 17 -897 -266 -897 c 0
 -430 -897 -521 -803 -537 -705 c 1
 -508 -861 -291 -1016 -12 -1016 c 0
 480 -1016 406 -430 406 90 c 2
 418 1847 l 1
 49 1847 l 1
 49 1884 l 1
 1196 1884 l 1
EndSplineSet
Validated: 37
EndChar

StartChar: k
Encoding: 107 107 48
GlifName: k
Width: 2822
VWidth: 4730
Flags: HMW
LayerCount: 2
Fore
SplineSet
2662 0 m 1
 1708 0 l 1
 999 1110 l 1
 2195 1884 l 1
 2257 1884 l 1
 1622 1466 l 1
 2662 0 l 1
1479 37 m 1
 2818 37 l 1
 2818 0 l 1
 1479 0 l 1
 1479 37 l 1
2556 1847 m 1
 1642 1847 l 1
 1642 1884 l 1
 2556 1884 l 1
 2556 1847 l 1
49 37 m 1
 1360 37 l 1
 1360 0 l 1
 49 0 l 1
 49 37 l 1
418 3035 m 1
 49 3035 l 1
 49 3072 l 1
 1196 3072 l 1
 1196 0 l 1
 418 0 l 1
 418 3035 l 1
EndSplineSet
Validated: 5
EndChar

StartChar: l
Encoding: 108 108 49
GlifName: l
Width: 1609
VWidth: 4730
Flags: HMW
LayerCount: 2
Fore
SplineSet
49 37 m 1
 1565 37 l 1
 1565 0 l 1
 49 0 l 1
 49 37 l 1
418 3035 m 1
 49 3035 l 1
 49 3072 l 1
 1196 3072 l 1
 1196 0 l 1
 418 0 l 1
 418 3035 l 1
EndSplineSet
Validated: 5
EndChar

StartChar: m
Encoding: 109 109 50
GlifName: m
Width: 3780
VWidth: 4730
Flags: HMW
LayerCount: 2
Fore
SplineSet
2281 1307 m 2
 2281 0 l 1
 1503 0 l 1
 1503 1311 l 2
 1503 1655 1462 1716 1384 1716 c 0
 1241 1716 1114 1343 1114 913 c 1
 1085 913 l 1
 1085 1331 1155 1925 1741 1925 c 0
 2138 1925 2281 1663 2281 1307 c 2
49 37 m 1
 1257 37 l 1
 1257 0 l 1
 49 0 l 1
 49 37 l 1
1360 37 m 1
 2425 37 l 1
 2425 0 l 1
 1360 0 l 1
 1360 37 l 1
2527 37 m 1
 3736 37 l 1
 3736 0 l 1
 2527 0 l 1
 2527 37 l 1
336 1847 m 1
 49 1847 l 1
 49 1884 l 1
 1114 1884 l 1
 1114 0 l 1
 336 0 l 1
 336 1847 l 1
3449 1307 m 2
 3449 0 l 1
 2671 0 l 1
 2671 1311 l 2
 2671 1655 2630 1716 2552 1716 c 0
 2409 1716 2281 1343 2281 913 c 1
 2257 913 l 1
 2257 1331 2314 1925 2908 1925 c 0
 3305 1925 3449 1663 3449 1307 c 2
EndSplineSet
Validated: 5
EndChar

StartChar: n
Encoding: 110 110 51
GlifName: n
Width: 2695
VWidth: 4730
Flags: HMW
LayerCount: 2
Fore
SplineSet
1585 1311 m 2
 1585 1655 1553 1700 1438 1700 c 0
 1250 1700 1114 1306 1114 913 c 1
 1085 913 l 1
 1085 1331 1196 1925 1782 1925 c 0
 2220 1925 2363 1663 2363 1307 c 2
 2363 0 l 1
 1585 0 l 1
 1585 1311 l 2
1421 37 m 1
 2650 37 l 1
 2650 0 l 1
 1421 0 l 1
 1421 37 l 1
49 37 m 1
 1278 37 l 1
 1278 0 l 1
 49 0 l 1
 49 37 l 1
336 1847 m 1
 49 1847 l 1
 49 1884 l 1
 1114 1884 l 1
 1114 0 l 1
 336 0 l 1
 336 1847 l 1
EndSplineSet
Validated: 5
EndChar

StartChar: o
Encoding: 111 111 52
GlifName: o
Width: 2338
VWidth: 4730
Flags: HMW
LayerCount: 2
Fore
SplineSet
909 942 m 0
 909 352 1011 -4 1171 -4 c 0
 1331 -4 1434 352 1434 942 c 0
 1434 1532 1331 1888 1171 1888 c 0
 1011 1888 909 1532 909 942 c 0
111 942 m 0
 111 1474 512 1925 1171 1925 c 0
 1830 1925 2232 1474 2232 942 c 0
 2232 410 1830 -41 1171 -41 c 0
 512 -41 111 410 111 942 c 0
EndSplineSet
Validated: 1
EndChar

StartChar: p
Encoding: 112 112 53
GlifName: p
Width: 2727
VWidth: 4730
Flags: HMW
LayerCount: 2
Fore
SplineSet
1085 942 m 0
 1085 1565 1315 1921 1753 1921 c 0
 2199 1921 2621 1556 2621 942 c 0
 2621 328 2199 -41 1753 -41 c 0
 1319 -41 1085 319 1085 942 c 0
1114 942 m 0
 1114 328 1380 53 1544 53 c 0
 1700 53 1741 344 1741 942 c 0
 1741 1540 1708 1827 1552 1827 c 0
 1376 1827 1114 1556 1114 942 c 0
49 -987 m 1
 1401 -987 l 1
 1401 -1024 l 1
 49 -1024 l 1
 49 -987 l 1
336 1847 m 1
 49 1847 l 1
 49 1884 l 1
 1114 1884 l 1
 1114 -1024 l 1
 336 -1024 l 1
 336 1847 l 1
EndSplineSet
Validated: 5
EndChar

StartChar: q
Encoding: 113 113 54
GlifName: q
Width: 2727
VWidth: 4730
Flags: HMW
LayerCount: 2
Fore
SplineSet
1647 942 m 0
 1647 319 1417 -41 979 -41 c 0
 533 -41 111 328 111 942 c 0
 111 1556 533 1921 979 1921 c 0
 1413 1921 1647 1565 1647 942 c 0
1618 942 m 0
 1618 1556 1356 1827 1180 1827 c 0
 1041 1827 991 1540 991 942 c 0
 991 344 1041 70 1180 70 c 0
 1389 70 1618 328 1618 942 c 0
2683 -987 m 1
 2683 -1024 l 1
 1331 -1024 l 1
 1331 -987 l 1
 2683 -987 l 1
2683 1884 m 1
 2683 1847 l 1
 2396 1847 l 1
 2396 -1024 l 1
 1618 -1024 l 1
 1618 1884 l 1
 2683 1884 l 1
EndSplineSet
Validated: 5
EndChar

StartChar: r
Encoding: 114 114 55
GlifName: r
Width: 2211
VWidth: 4730
Flags: HMW
LayerCount: 2
Fore
SplineSet
2040 1634 m 1
 1987 1786 1811 1884 1651 1884 c 0
 1164 1884 1114 1339 1114 913 c 1
 1085 913 l 1
 1085 1413 1130 1925 1667 1925 c 0
 1937 1925 2208 1713 2208 1389 c 0
 2208 1147 2044 934 1765 934 c 0
 1507 934 1319 1110 1319 1364 c 0
 1319 1733 1778 1908 2040 1634 c 1
49 37 m 1
 1401 37 l 1
 1401 0 l 1
 49 0 l 1
 49 37 l 1
336 1847 m 1
 49 1847 l 1
 49 1884 l 1
 1114 1884 l 1
 1114 0 l 1
 336 0 l 1
 336 1847 l 1
EndSplineSet
Validated: 37
EndChar

StartChar: s
Encoding: 115 115 56
GlifName: s
Width: 1896
VWidth: 4730
Flags: HMW
LayerCount: 2
Fore
SplineSet
1565 1475 m 1
 1520 1545 1372 1712 1323 1753 c 1
 1634 1925 l 1
 1663 1925 l 1
 1663 1352 l 1
 1626 1352 l 1
 1606.26564596 1392.53590846 1596.66573682 1425.21960864 1565 1475 c 1
1655 1352 m 1
 1626 1352 l 1
 1462 1598 1254 1880 877 1880 c 0
 684 1880 541 1794 541 1651 c 0
 541 1286 1810 1434 1810 623 c 0
 1810 136 1384 -41 1028 -41 c 0
 602 -41 336 213 152 655 c 1
 180 655 l 1
 377 233 643 0 1012 0 c 0
 1266 0 1430 99 1430 242 c 0
 1430 594 180 446 180 1290 c 0
 180 1675 488 1921 877 1921 c 0
 1278 1921 1491 1622 1655 1352 c 1
172 -41 m 1
 143 -41 l 1
 143 655 l 1
 180 655 l 5
 191.150444023 600.745760883 205.096116728 545.170699421 233 483 c 5
 282 393 438 213 483 172 c 1
 172 -41 l 1
EndSplineSet
Validated: 524293
EndChar

StartChar: t
Encoding: 116 116 57
GlifName: t
Width: 1642
VWidth: 4730
Flags: HMW
LayerCount: 2
Fore
SplineSet
8 1884 m 1
 1524 1884 l 1
 1524 1847 l 1
 8 1847 l 1
 8 1884 l 1
1647 418 m 1
 1549 156 1299 -29 885 -29 c 0
 426 -29 307 148 307 496 c 2
 307 2294 l 1
 553 2294 880 2315 1085 2417 c 1
 1085 414 l 2
 1085 209 1130 106 1241 106 c 0
 1356 106 1524 205 1614 430 c 1
 1647 418 l 1
EndSplineSet
Validated: 5
EndChar

StartChar: u
Encoding: 117 117 58
GlifName: u
Width: 2695
VWidth: 4730
Flags: HMW
LayerCount: 2
Fore
SplineSet
1114 1884 m 1
 1114 573 l 2
 1114 229 1147 184 1262 184 c 0
 1450 184 1585 578 1585 971 c 1
 1614 971 l 1
 1614 553 1504 -41 918 -41 c 0
 480 -41 336 222 336 578 c 2
 336 1847 l 1
 49 1847 l 1
 49 1884 l 1
 1114 1884 l 1
2363 37 m 1
 2650 37 l 1
 2650 0 l 1
 1585 0 l 1
 1585 1847 l 1
 1339 1847 l 1
 1339 1884 l 1
 2363 1884 l 1
 2363 37 l 1
EndSplineSet
Validated: 5
EndChar

StartChar: v
Encoding: 118 118 59
GlifName: v
Width: 2453
VWidth: 4730
Flags: HMW
LayerCount: 2
Fore
SplineSet
2474 1847 m 1
 1679 1847 l 1
 1679 1884 l 1
 2474 1884 l 1
 2474 1847 l 1
1376 1847 m 1
 -20 1847 l 1
 -20 1884 l 1
 1376 1884 l 1
 1376 1847 l 1
1556 561 m 1
 2081 1884 l 1
 2134 1884 l 1
 1364 -41 l 1
 1036 -41 l 1
 246 1884 l 1
 1106 1884 l 1
 1556 561 l 1
EndSplineSet
Validated: 5
EndChar

StartChar: w
Encoding: 119 119 60
GlifName: w
Width: 3624
VWidth: 4730
Flags: HMW
LayerCount: 2
Fore
SplineSet
1458 1847 m 1
 -20 1847 l 1
 -20 1884 l 1
 1458 1884 l 1
 1458 1847 l 1
3645 1847 m 1
 2769 1847 l 1
 2769 1884 l 1
 3645 1884 l 1
 3645 1847 l 1
1413 606 m 1
 1925 1925 l 1
 2478 1925 l 1
 2830 713 l 1
 3219 1884 l 1
 3265 1884 l 1
 2621 -41 l 1
 2290 -41 l 1
 1757 1376 l 1
 1204 -41 l 1
 872 -41 l 1
 246 1884 l 1
 1081 1884 l 1
 1413 606 l 1
EndSplineSet
Validated: 5
EndChar

StartChar: x
Encoding: 120 120 61
GlifName: x
Width: 2433
VWidth: 4730
Flags: HMW
LayerCount: 2
Fore
SplineSet
1016 37 m 1
 2413 37 l 1
 2413 0 l 1
 1016 0 l 1
 1016 37 l 1
20 37 m 1
 795 37 l 1
 795 0 l 1
 20 0 l 1
 20 37 l 1
1397 1847 m 1
 20 1847 l 1
 20 1884 l 1
 1397 1884 l 1
 1397 1847 l 1
2372 1847 m 1
 1659 1847 l 1
 1659 1884 l 1
 2372 1884 l 1
 2372 1847 l 1
2228 0 m 1
 1327 0 l 1
 246 1884 l 1
 1106 1884 l 1
 2228 0 l 1
340 0 m 1
 287 0 l 1
 2011 1884 l 1
 2064 1884 l 1
 340 0 l 1
EndSplineSet
Validated: 5
EndChar

StartChar: y
Encoding: 121 121 62
GlifName: y
Width: 2613
VWidth: 4730
Flags: HMW
LayerCount: 2
Fore
SplineSet
1663 1847 m 1
 -61 1847 l 1
 -61 1884 l 1
 1663 1884 l 1
 1663 1847 l 1
2675 1847 m 1
 1876 1847 l 1
 1876 1884 l 1
 2675 1884 l 1
 2675 1847 l 1
1794 745 m 1
 1339 -119 l 1
 242 1884 l 1
 1184 1884 l 1
 1794 745 l 1
1036 -684 m 1
 2343 1884 l 1
 2396 1884 l 1
 1044 -758 l 2
 962 -914 824 -1028 627 -1028 c 0
 402 -1028 213 -877 213 -639 c 0
 213 -422 389 -221 643 -221 c 0
 872 -221 1065 -434 1036 -684 c 1
EndSplineSet
Validated: 37
EndChar

StartChar: z
Encoding: 122 122 63
GlifName: z
Width: 2060
VWidth: 4730
Flags: HMW
LayerCount: 2
Fore
SplineSet
872 1847 m 2
 569 1847 303 1594 180 1180 c 1
 143 1180 l 1
 143 1884 l 1
 1950 1884 l 1
 1950 1847 l 1
 881 37 l 1
 1192 37 l 2
 1589 37 1855 246 1978 754 c 1
 2015 754 l 1
 2015 0 l 1
 29 0 l 1
 29 37 l 1
 1094 1847 l 1
 872 1847 l 2
EndSplineSet
Validated: 1
EndChar

StartChar: comma
Encoding: 44 44 65
GlifName: comma
Width: 1372
Flags: HMW
LayerCount: 2
Fore
SplineSet
164 446 m 0
 164 704 405 934 684 934 c 0
 967 934 1217 684 1217 262 c 0
 1217 -270 770 -639 156 -639 c 1
 156 -602 l 1
 734 -602 1249 -262 1159 422 c 1
 1118 184 913 -41 643 -41 c 0
 360 -41 164 188 164 446 c 0
EndSplineSet
Validated: 33
EndChar

StartChar: exclam
Encoding: 33 33 67
GlifName: exclam
Width: 1802
Flags: HMW
LayerCount: 2
Fore
SplineSet
1384 2535 m 0
 1339 2060 918 1672 918 1262 c 1
 877 1262 l 1
 877 1672 455 2060 410 2535 c 0
 406 2564 410 2588 410 2613 c 0
 410 2883 582 3105 897 3105 c 0
 1212 3105 1389 2883 1389 2613 c 0
 1389 2588 1388 2564 1384 2535 c 0
EndSplineSet
Refer: 1 46 N 1 0 0 1 246 0 2
Validated: 1
EndChar

StartChar: quotesingle
Encoding: 39 39 70
GlifName: quotesingle
Width: 1310
Flags: HMW
LayerCount: 2
Fore
SplineSet
1102 2626 m 24
 1057 2319 676 2163 676 1712 c 1
 635 1712 l 1
 635 2163 254 2319 209 2626 c 24
 205 2655 205 2674 205 2699 c 0
 205 2941 413 3113 655 3113 c 0
 897 3113 1106 2941 1106 2699 c 0
 1106 2674 1106 2655 1102 2626 c 24
EndSplineSet
Validated: 1
EndChar

StartChar: question
Encoding: 63 63 75
GlifName: question
Width: 2539
Flags: HMW
LayerCount: 2
Fore
SplineSet
1032 1503 m 1
 1347 1630 1430 1913 1430 2294 c 0
 1430 2679 1397 3043 1073 3043 c 0
 721 3043 397 2765 344 2548 c 1
 369 2601 500 2703 676 2703 c 0
 918 2703 1122 2560 1122 2314 c 0
 1122 2048 950 1880 684 1880 c 0
 397 1880 246 2069 246 2339 c 0
 246 2716 630 3113 1253 3113 c 0
 1912 3113 2335 2786 2335 2294 c 0
 2335 1823 1855 1516 1073 1479 c 1
 1073 1143 l 1
 1032 1143 l 1
 1032 1503 l 1
EndSplineSet
Refer: 1 46 N 1 0 0 1 528 0 2
Validated: 1
EndChar

StartChar: parenleft
Encoding: 40 40 76
GlifName: parenleft
Width: 1564
Flags: HMW
LayerCount: 2
Fore
SplineSet
1503 -668 m 1
 1487 -696 l 1
 819 -409 266 377 266 1331 c 0
 266 2285 819 2990 1487 3277 c 1
 1503 3248 l 1
 1200 3043 1147 2117 1147 1331 c 0
 1147 545 1200 -463 1503 -668 c 1
EndSplineSet
Validated: 1
EndChar

StartChar: at
Encoding: 64 64 79
GlifName: at
Width: 4136
VWidth: 4730
Flags: HMW
LayerCount: 2
Fore
SplineSet
2245 1491 m 0
 2245 827 1998 287 1466 287 c 0
 1085 287 836 516 836 942 c 0
 836 1556 1262 2167 1794 2167 c 0
 2191 2167 2245 1827 2245 1491 c 0
2208 1417 m 0
 2208 1589 2208 1896 2118 1896 c 0
 1983 1896 1741 1491 1741 983 c 0
 1741 709 1803 561 1901 561 c 0
 2028 561 2208 942 2208 1417 c 0
2130 860 m 2
 2425 2130 l 1
 3285 2130 l 1
 2982 823 l 2
 2937 622 2876 401 3052 401 c 0
 3433 401 3875 929 3875 1642 c 0
 3875 2375 3412 3199 2392 3199 c 0
 1225 3199 262 2126 262 864 c 0
 262 -393 987 -840 1716 -840 c 0
 2384 -840 2835 -639 3187 -238 c 1
 3215 -262 l 1
 2871 -663 2384 -877 1716 -877 c 0
 966 -877 225 -422 225 864 c 0
 225 2146 1196 3236 2396 3236 c 0
 3432 3236 3912 2392 3912 1642 c 0
 3912 946 3530 279 2707 279 c 0
 2097 279 2073 606 2130 860 c 2
EndSplineSet
Validated: 37
EndChar

StartChar: dollar
Encoding: 36 36 80
GlifName: dollar
Width: 2600
Flags: HMW
LayerCount: 2
Fore
SplineSet
1319 3400 m 1
 1364 3400 l 1
 1364 -328 l 1
 1319 -328 l 1
 1319 3400 l 1
1036 3400 m 1
 1081 3400 l 1
 1081 -328 l 1
 1036 -328 l 1
 1036 3400 l 1
2171 2658 m 1
 2052 2904 1672 3064 1307 3064 c 0
 1037 3064 778 2932 778 2666 c 0
 778 1982 2437 2171 2437 942 c 0
 2437 369 1990 -61 1290 -61 c 0
 487 -61 102 328 102 676 c 0
 102 946 270 1135 532 1135 c 0
 737 1135 918 962 918 700 c 0
 918 454 676 352 496 352 c 0
 353 352 237 421 188 532 c 1
 278 270 622 -16 1249 -16 c 0
 1683 -16 1864 180 1864 487 c 0
 1864 1253 205 921 205 2232 c 0
 205 2764 761 3113 1257 3113 c 0
 1740 3113 2273 2892 2273 2478 c 0
 2273 2208 2126 2060 1864 2060 c 0
 1659 2060 1479 2183 1479 2433 c 0
 1479 2666 1667 2802 1847 2802 c 0
 1970 2802 2085 2760 2171 2658 c 1
EndSplineSet
Validated: 5
EndChar

StartChar: numbersign
Encoding: 35 35 81
GlifName: numbersign
Width: 2580
Flags: HMW
LayerCount: 2
Fore
SplineSet
123 1049 m 1
 2335 1049 l 1
 2335 1012 l 1
 123 1012 l 1
 123 1049 l 1
246 2122 m 1
 2458 2122 l 1
 2458 2085 l 1
 246 2085 l 1
 246 2122 l 1
1851 3088 m 1
 1888 3092 l 1
 1479 -20 l 1
 1442 -25 l 1
 1851 3088 l 1
1061 3092 m 1
 1098 3092 l 1
 688 -20 l 1
 651 -20 l 1
 1061 3092 l 1
EndSplineSet
Validated: 5
EndChar

StartChar: slash
Encoding: 47 47 82
GlifName: slash
Width: 2129
Flags: HMW
LayerCount: 2
Fore
SplineSet
1929 3195 m 1
 1966 3195 l 1
 201 -614 l 1
 164 -614 l 1
 1929 3195 l 1
EndSplineSet
Validated: 1
EndChar

StartChar: percent
Encoding: 37 37 83
GlifName: percent
Width: 4259
Flags: HMW
LayerCount: 2
Fore
SplineSet
2970 860 m 0
 2970 188 3035 -4 3133 -4 c 0
 3231 -4 3297 188 3297 860 c 0
 3297 1532 3231 1724 3133 1724 c 0
 3035 1724 2970 1532 2970 860 c 0
2150 860 m 0
 2150 1446 2670 1761 3133 1761 c 0
 3596 1761 4116 1446 4116 860 c 0
 4116 274 3514 -41 3133 -41 c 0
 2670 -41 2150 274 2150 860 c 0
3170 3072 m 1
 3215 3072 l 1
 1090 0 l 1
 1044 0 l 1
 3170 3072 l 1
963 2212 m 0
 963 1540 1028 1348 1126 1348 c 0
 1224 1348 1290 1540 1290 2212 c 0
 1290 2884 1224 3076 1126 3076 c 0
 1028 3076 963 2884 963 2212 c 0
143 2212 m 0
 143 2798 663 3113 1126 3113 c 0
 1589 3113 2109 2798 2109 2212 c 0
 2109 1626 1507 1311 1126 1311 c 0
 663 1311 143 1626 143 2212 c 0
EndSplineSet
Validated: 1
EndChar

StartChar: hyphen
Encoding: 45 45 85
GlifName: hyphen
Width: 1474
Flags: HMW
LayerCount: 2
Fore
SplineSet
246 1147 m 1
 1229 1147 l 1
 1229 1106 l 1
 246 1106 l 1
 246 1147 l 1
EndSplineSet
Validated: 1
EndChar

StartChar: plus
Encoding: 43 43 87
GlifName: plus
Width: 2170
Flags: HMW
LayerCount: 2
Fore
SplineSet
1065 451 m 1
 1065 2130 l 1
 1106 2130 l 1
 1106 451 l 1
 1065 451 l 1
246 1315 m 1
 1925 1315 l 1
 1925 1274 l 1
 246 1274 l 1
 246 1315 l 1
EndSplineSet
Validated: 5
EndChar

StartChar: less
Encoding: 60 60 89
GlifName: less
Width: 2293
Flags: HMW
LayerCount: 2
Fore
SplineSet
246 1573 m 1
 246 1610 l 1
 2048 2458 l 1
 2048 2421 l 1
 246 1573 l 1
246 1565 m 1
 246 1602 l 1
 2048 754 l 1
 2048 717 l 1
 246 1565 l 1
EndSplineSet
Validated: 5
EndChar

StartChar: backslash
Encoding: 92 92 91
GlifName: backslash
Width: 2129
Flags: HMW
LayerCount: 2
Fore
SplineSet
209 3195 m 1
 1966 -614 l 1
 1921 -614 l 1
 164 3195 l 1
 209 3195 l 1
EndSplineSet
Validated: 1
EndChar

StartChar: bracketleft
Encoding: 91 91 92
GlifName: bracketleft
Width: 1576
Flags: HMW
LayerCount: 2
Fore
SplineSet
1454 -614 m 1
 225 -614 l 1
 225 -578 l 1
 1454 -578 l 1
 1454 -614 l 1
1454 3158 m 1
 225 3158 l 1
 225 3195 l 1
 1454 3195 l 1
 1454 3158 l 1
1085 3195 m 1
 1085 -614 l 1
 225 -614 l 1
 225 3195 l 1
 1085 3195 l 1
EndSplineSet
Validated: 5
EndChar

StartChar: braceleft
Encoding: 123 123 93
GlifName: braceleft
Width: 1605
VWidth: 4730
Flags: HMW
LayerCount: 2
Fore
SplineSet
1483 3195 m 1
 1483 3158 l 1
 1229 3158 1098 2908 1098 2650 c 0
 1098 2421 1237 2216 1237 1888 c 0
 1237 1548 1020 1364 225 1282 c 1
 225 1311 l 1
 348 1352 471 1454 471 1622 c 0
 471 1880 225 2065 225 2544 c 0
 225 2990 520 3195 1483 3195 c 1
1483 -614 m 1
 520 -614 225 -405 225 41 c 0
 225 520 471 705 471 963 c 0
 471 1131 348 1229 225 1270 c 1
 225 1303 l 1
 1020 1221 1237 1036 1237 696 c 0
 1237 368 1098 163 1098 -66 c 0
 1098 -324 1229 -578 1483 -578 c 1
 1483 -614 l 1
EndSplineSet
Validated: 5
EndChar

StartChar: bar
Encoding: 124 124 96
GlifName: bar
Width: 942
VWidth: 4730
Flags: HMW
LayerCount: 2
Fore
SplineSet
451 3195 m 1
 492 3195 l 1
 492 -1024 l 1
 451 -1024 l 1
 451 3195 l 1
EndSplineSet
Validated: 1
EndChar

StartChar: cent
Encoding: 162 162 98
GlifName: cent
Width: 2224
VWidth: 4730
Flags: HMW
LayerCount: 2
Fore
SplineSet
1266 2273 m 1
 1266 -348 l 1
 1233 -348 l 1
 1233 2273 l 1
 1266 2273 l 1
EndSplineSet
Refer: 40 99 N 1 0 0 1 0 0 2
Validated: 5
EndChar

StartChar: sterling
Encoding: 163 163 99
GlifName: sterling
Width: 2813
VWidth: 4730
Flags: HMW
LayerCount: 2
Fore
SplineSet
2712 1135 m 1
 2712 131 2461 -123 1892 -123 c 0
 1331 -123 1024 123 766 123 c 0
 598 123 377 41 336 -82 c 1
 311 -82 l 1
 352 221 856 889 1319 889 c 0
 1647 889 1835 750 2064 750 c 0
 2371 750 2675 799 2675 1135 c 1
 2712 1135 l 1
1905 1638 m 1
 1905 1597 l 1
 61 1597 l 1
 61 1638 l 1
 1905 1638 l 1
319 2253 m 0
 319 2826 791 3113 1573 3113 c 0
 2237 3113 2671 2675 2671 2339 c 0
 2671 2048 2486 1819 2220 1819 c 0
 1954 1819 1704 2007 1704 2294 c 0
 1704 2560 1941 2765 2183 2765 c 0
 2376 2765 2470 2658 2511 2605 c 1
 2380 2834 2065 3035 1737 3035 c 0
 1454 3035 1266 2884 1266 2499 c 0
 1266 2093 1495 1986 1495 1597 c 0
 1495 819 279 840 332 -82 c 1
 295 -82 l 1
 217 487 651 807 651 1069 c 0
 651 1536 319 1782 319 2253 c 0
EndSplineSet
Validated: 37
EndChar

StartChar: section
Encoding: 167 167 101
GlifName: section
Width: 2072
VWidth: 4730
Flags: HMW
LayerCount: 2
Fore
SplineSet
676 2699 m 0
 676 2265 1876 2224 1876 1597 c 0
 1876 1261 1634 1191 1454 1085 c 1
 1417 1085 l 1
 1491 1146 1581 1172 1581 1319 c 0
 1581 1692 295 1663 295 2408 c 0
 295 2834 643 3113 1114 3113 c 0
 1433 3113 1909 3010 1909 2576 c 0
 1909 2367 1765 2200 1540 2200 c 0
 1335 2200 1196 2364 1196 2552 c 0
 1196 2724 1351 2888 1552 2888 c 0
 1679 2888 1765 2826 1806 2773 c 1
 1679 2998 1376 3072 1114 3072 c 0
 901 3072 676 2900 676 2699 c 0
1901 664 m 0
 1901 238 1552 -41 999 -41 c 0
 639 -41 123 103 123 496 c 0
 123 705 267 872 492 872 c 0
 697 872 836 708 836 520 c 0
 836 348 688 201 487 201 c 0
 331 201 250 283 225 336 c 1
 323 111 667 0 999 0 c 0
 1339 0 1520 213 1520 373 c 0
 1520 807 238 786 238 1413 c 0
 238 1749 479 1901 659 2007 c 1
 696 2007 l 1
 630 1958 537 1897 537 1774 c 0
 537 1401 1901 1409 1901 664 c 0
EndSplineSet
Validated: 5
EndChar

StartChar: asciitilde
Encoding: 126 126 104
GlifName: asciitilde
Width: 2818
VWidth: 4730
Flags: HMW
LayerCount: 2
Fore
SplineSet
807 1667 m 0
 590 1667 446 1577 446 1405 c 1
 410 1405 l 1
 410 1876 614 2212 1020 2212 c 0
 1471 2212 1552 1827 1970 1827 c 0
 2228 1827 2372 1917 2372 2089 c 1
 2408 2089 l 1
 2408 1618 2204 1282 1798 1282 c 0
 1278 1282 1253 1667 807 1667 c 0
EndSplineSet
Validated: 1
EndChar

StartChar: copyright
Encoding: 169 169 105
GlifName: copyright
Width: 3563
Flags: HMW
LayerCount: 2
Fore
SplineSet
205 1536 m 0
 205 2408 910 3113 1782 3113 c 0
 2654 3113 3359 2408 3359 1536 c 0
 3359 664 2654 -41 1782 -41 c 0
 910 -41 205 664 205 1536 c 0
242 1536 m 0
 242 688 934 -4 1782 -4 c 0
 2630 -4 3322 688 3322 1536 c 0
 3322 2384 2630 3076 1782 3076 c 0
 934 3076 242 2384 242 1536 c 0
EndSplineSet
Refer: 14 67 N 0.6 0 0 0.6 786 614 2
Validated: 524293
EndChar

StartChar: registered
Encoding: 174 174 106
GlifName: registered
Width: 3563
Flags: HMW
LayerCount: 2
Fore
SplineSet
205 1536 m 0
 205 2408 910 3113 1782 3113 c 0
 2654 3113 3359 2408 3359 1536 c 0
 3359 664 2654 -41 1782 -41 c 0
 910 -41 205 664 205 1536 c 0
242 1536 m 0
 242 688 934 -4 1782 -4 c 0
 2630 -4 3322 688 3322 1536 c 0
 3322 2384 2630 3076 1782 3076 c 0
 934 3076 242 2384 242 1536 c 0
EndSplineSet
Refer: 29 82 N 0.6 0 0 0.6 852 606 2
Validated: 524293
EndChar

StartChar: logicalnot
Encoding: 172 172 107
GlifName: logicalnot
Width: 1990
Flags: HMW
LayerCount: 2
Fore
SplineSet
1708 2482 m 1
 246 2482 l 1
 246 2519 l 1
 1745 2519 l 1
 1745 1692 l 1
 1708 1692 l 1
 1708 2482 l 1
EndSplineSet
Validated: 1
EndChar

StartChar: guillemotleft
Encoding: 171 171 108
GlifName: guillemotleft
Width: 3092
Flags: HMW
LayerCount: 2
Fore
SplineSet
2257 1589 m 1
 2867 614 l 1
 2847 594 l 1
 1249 1561 l 1
 1249 1614 l 1
 2847 2580 l 1
 2867 2560 l 1
 2257 1589 l 1
1028 1589 m 1
 1720 614 l 1
 1700 594 l 1
 102 1561 l 1
 102 1614 l 1
 1700 2580 l 1
 1720 2560 l 1
 1028 1589 l 1
EndSplineSet
Validated: 1
EndChar

StartChar: mu
Encoding: 181 181 111
GlifName: mu
Width: 2519
VWidth: 4730
Flags: HMW
LayerCount: 2
Fore
SplineSet
1028 -504 m 0
 1163 -504 1270 -622 1270 -778 c 0
 1270 -938 1184 -1065 885 -1065 c 0
 598 -1065 352 -865 352 -496 c 2
 352 1315 l 1
 385 1315 l 1
 385 -496 l 2
 385 -848 614 -1048 942 -1028 c 1
 942 -1028 l 1
 840 -971 782 -868 782 -745 c 0
 782 -610 893 -504 1028 -504 c 0
EndSplineSet
Refer: 58 117 N 1 0 0 1 0 0 2
Validated: 37
EndChar

StartChar: asciicircum
Encoding: 94 94 113
GlifName: asciicircum
Width: 2232
Flags: HMW
LayerCount: 2
Fore
SplineSet
1114 2961 m 1
 430 2560 l 1
 410 2580 l 1
 983 3154 l 1
 1249 3154 l 1
 1823 2580 l 1
 1802 2560 l 1
 1114 2961 l 1
EndSplineSet
Validated: 1
EndChar

StartChar: degree
Encoding: 176 176 115
GlifName: degree
Width: 1310
Flags: HMW
LayerCount: 2
Fore
SplineSet
164 2785 m 0
 164 3055 385 3277 655 3277 c 0
 925 3277 1147 3055 1147 2785 c 0
 1147 2515 925 2294 655 2294 c 0
 385 2294 164 2515 164 2785 c 0
303 2785 m 0
 303 2584 454 2433 655 2433 c 0
 856 2433 1008 2584 1008 2785 c 0
 1008 2986 856 3138 655 3138 c 0
 454 3138 303 2986 303 2785 c 0
EndSplineSet
Validated: 1
EndChar

StartChar: onequarter
Encoding: 188 188 119
GlifName: onequarter
Width: 2871
Flags: HMW
LayerCount: 2
Fore
SplineSet
2118 2662 m 1
 2154 2662 l 1
 201 -410 l 1
 164 -410 l 1
 2118 2662 l 1
EndSplineSet
Refer: 6 52 N 0.6 0 0 0.6 1106 -422 2
Refer: 3 49 N 0.6 0 0 0.6 -33 1458 2
Validated: 524293
EndChar

StartChar: onehalf
Encoding: 189 189 120
GlifName: onehalf
Width: 2990
Flags: HMW
LayerCount: 2
Fore
SplineSet
2118 2662 m 1
 2154 2662 l 1
 201 -410 l 1
 164 -410 l 1
 2118 2662 l 1
EndSplineSet
Refer: 4 50 N 0.6 0 0 0.6 1397 -414 2
Refer: 3 49 N 0.6 0 0 0.6 -33 1458 2
Validated: 524293
EndChar

StartChar: threequarters
Encoding: 190 190 121
GlifName: threequarters
Width: 3117
Flags: HMW
LayerCount: 2
Fore
SplineSet
2363 2662 m 1
 2400 2662 l 1
 446 -410 l 1
 410 -410 l 1
 2363 2662 l 1
EndSplineSet
Refer: 5 51 N 0.6 0 0 0.6 20 1450 2
Refer: 6 52 N 0.6 0 0 0.6 1352 -422 2
Validated: 524293
EndChar

StartChar: grave
Encoding: 96 96 123
GlifName: grave
Width: 1740
Flags: HMW
LayerCount: 2
Fore
SplineSet
614 2785 m 2
 413 2744 225 2891 225 3092 c 0
 225 3293 450 3481 655 3391 c 2
 1507 3011 l 1
 1495 2970 l 1
 614 2785 l 2
EndSplineSet
Validated: 33
EndChar

StartChar: acute
Encoding: 180 180 124
GlifName: acute
Width: 1740
Flags: HMW
LayerCount: 2
Fore
SplineSet
1126 2785 m 2
 246 2970 l 1
 233 3011 l 1
 1085 3391 l 2
 1290 3481 1516 3293 1516 3092 c 0
 1516 2891 1327 2744 1126 2785 c 2
EndSplineSet
Validated: 33
EndChar

StartChar: cedilla
Encoding: 184 184 128
GlifName: cedilla
Width: 2252
Flags: HMW
LayerCount: 2
Fore
SplineSet
1184 -573 m 0
 1184 -356 1032 -324 889 -324 c 1
 1257 168 l 1
 1311 168 l 1
 1065 -160 l 1
 1532 -172 1802 -263 1802 -492 c 0
 1802 -697 1605 -901 864 -901 c 1
 864 -864 l 1
 1106 -864 1184 -737 1184 -573 c 0
EndSplineSet
Validated: 1
EndChar

StartChar: ring
Encoding: 730 730 271
GlifName: ring
Width: 1310
VWidth: 0
Flags: HMW
LayerCount: 2
Fore
SplineSet
205 2785 m 0
 205 2994 364 3154 655 3154 c 0
 946 3154 1106 2994 1106 2785 c 0
 1106 2576 946 2417 655 2417 c 0
 364 2417 205 2576 205 2785 c 0
553 2785 m 0
 553 2547 585 2454 655 2454 c 0
 725 2454 758 2547 758 2785 c 0
 758 3023 725 3117 655 3117 c 0
 585 3117 553 3023 553 2785 c 0
EndSplineSet
Validated: 1
EndChar

StartChar: tilde
Encoding: 732 732 272
GlifName: tilde
Width: 1835
VWidth: 0
Flags: HMW
LayerCount: 2
Fore
SplineSet
463 2617 m 0
 320 2617 242 2507 242 2417 c 1
 205 2417 l 1
 205 2765 286 3101 610 3101 c 0
 979 3101 1061 2777 1372 2777 c 0
 1515 2777 1593 2888 1593 2978 c 1
 1630 2978 l 1
 1630 2589 1631 2294 1266 2294 c 0
 910 2294 803 2617 463 2617 c 0
EndSplineSet
Validated: 33
EndChar

StartChar: AE
Encoding: 198 198 274
GlifName: A_E_
Width: 4464
Flags: HMW
LayerCount: 2
Fore
SplineSet
2150 3072 m 1
 2195 3072 l 1
 451 0 l 1
 397 0 l 1
 2150 3072 l 1
61 37 m 1
 963 37 l 1
 963 0 l 1
 61 0 l 1
 61 37 l 1
1004 1024 m 1
 2191 1024 l 1
 2191 983 l 1
 1004 983 l 1
 1004 1024 l 1
2150 3072 m 1
 3031 3072 l 1
 3031 0 l 1
 2150 0 l 1
 2150 3072 l 1
2150 3072 m 1
 4301 3072 l 1
 4301 2232 l 1
 4264 2232 l 1
 4141 2670 3756 3035 3318 3035 c 2
 2150 3035 l 1
 2150 3072 l 1
4342 0 m 1
 1782 0 l 1
 1782 37 l 1
 3277 37 l 2
 3797 37 4182 402 4305 922 c 1
 4342 922 l 1
 4342 0 l 1
3690 1016 m 1
 3567 1290 3305 1569 3072 1569 c 2
 2826 1569 l 1
 2826 1610 l 1
 3072 1610 l 2
 3305 1610 3567 1868 3690 2142 c 1
 3727 2142 l 1
 3727 1016 l 1
 3690 1016 l 1
EndSplineSet
Validated: 5
EndChar

StartChar: ae
Encoding: 230 230 277
GlifName: ae
Width: 3698
VWidth: 4730
Flags: HMW
LayerCount: 2
Fore
SplineSet
287 1458 m 0
 287 1732 643 1917 1098 1917 c 0
 1630 1917 2032 1663 2032 1249 c 1
 2052 741 l 1
 2052 233 1479 -41 983 -41 c 0
 414 -41 143 160 143 463 c 0
 143 807 458 1069 1040 1069 c 2
 1958 1069 l 1
 1958 1032 l 1
 1327 1032 l 2
 1139 1032 971 799 971 463 c 0
 971 189 1049 12 1151 12 c 0
 1262 12 1376 205 1376 537 c 2
 1376 1249 l 2
 1376 1523 1291 1876 963 1876 c 0
 824 1876 635 1819 553 1741 c 1
 836 1868 1151 1720 1151 1466 c 0
 1151 1261 930 1110 705 1110 c 0
 459 1110 287 1270 287 1458 c 0
2810 1085 m 1
 2806 1470 2802 1888 2642 1888 c 0
 2482 1888 2437 1491 2437 1024 c 0
 2437 557 2470 29 2810 29 c 0
 3179 29 3457 254 3559 586 c 1
 3596 586 l 1
 3490 230 3191 -41 2654 -41 c 0
 2158 -41 1761 287 1761 942 c 0
 1761 1597 2146 1925 2642 1925 c 0
 3252 1925 3592 1495 3592 1049 c 1
 2126 1049 l 1
 2126 1085 l 1
 2810 1085 l 1
EndSplineSet
Validated: 37
EndChar

StartChar: uni2010
Encoding: 8208 8208 279
GlifName: uni2010
Width: 1474
Flags: HMW
LayerCount: 2
Fore
SplineSet
246 1147 m 1
 1229 1147 l 1
 1229 1106 l 1
 246 1106 l 1
 246 1147 l 1
EndSplineSet
Validated: 1
EndChar

StartChar: uni2011
Encoding: 8209 8209 280
GlifName: uni2011
Width: 1175
Flags: HMW
LayerCount: 2
Fore
SplineSet
246 1147 m 1
 930 1147 l 1
 930 1106 l 1
 246 1106 l 1
 246 1147 l 1
EndSplineSet
Validated: 1
EndChar

StartChar: figuredash
Encoding: 8210 8210 282
GlifName: figuredash
Width: 1822
Flags: HMW
LayerCount: 2
Fore
SplineSet
246 1147 m 1
 1577 1147 l 1
 1577 1106 l 1
 246 1106 l 1
 246 1147 l 1
EndSplineSet
Validated: 1
EndChar

StartChar: perthousand
Encoding: 8240 8240 285
GlifName: perthousand
Width: 6348
Flags: HMW
LayerCount: 2
Fore
SplineSet
5059 860 m 0
 5059 188 5124 -4 5222 -4 c 0
 5320 -4 5386 188 5386 860 c 0
 5386 1532 5320 1724 5222 1724 c 0
 5124 1724 5059 1532 5059 860 c 0
4239 860 m 0
 4239 1446 4759 1761 5222 1761 c 0
 5685 1761 6205 1446 6205 860 c 0
 6205 274 5603 -41 5222 -41 c 0
 4759 -41 4239 274 4239 860 c 0
2970 860 m 0
 2970 188 3035 -4 3133 -4 c 0
 3231 -4 3297 188 3297 860 c 0
 3297 1532 3231 1724 3133 1724 c 0
 3035 1724 2970 1532 2970 860 c 0
2150 860 m 0
 2150 1446 2670 1761 3133 1761 c 0
 3596 1761 4116 1446 4116 860 c 0
 4116 274 3514 -41 3133 -41 c 0
 2670 -41 2150 274 2150 860 c 0
3170 3072 m 1
 3215 3072 l 1
 1090 0 l 1
 1044 0 l 1
 3170 3072 l 1
963 2212 m 0
 963 1540 1028 1348 1126 1348 c 0
 1224 1348 1290 1540 1290 2212 c 0
 1290 2884 1224 3076 1126 3076 c 0
 1028 3076 963 2884 963 2212 c 0
143 2212 m 0
 143 2798 663 3113 1126 3113 c 0
 1589 3113 2109 2798 2109 2212 c 0
 2109 1626 1507 1311 1126 1311 c 0
 663 1311 143 1626 143 2212 c 0
EndSplineSet
Validated: 1
EndChar

StartChar: uni2031
Encoding: 8241 8241 286
GlifName: uni2031
Width: 8437
Flags: HMW
LayerCount: 2
Fore
SplineSet
7148 860 m 0
 7148 188 7213 -4 7311 -4 c 0
 7409 -4 7475 188 7475 860 c 0
 7475 1532 7409 1724 7311 1724 c 0
 7213 1724 7148 1532 7148 860 c 0
6328 860 m 0
 6328 1446 6848 1761 7311 1761 c 0
 7774 1761 8294 1446 8294 860 c 0
 8294 274 7692 -41 7311 -41 c 0
 6848 -41 6328 274 6328 860 c 0
5059 860 m 0
 5059 188 5124 -4 5222 -4 c 0
 5320 -4 5386 188 5386 860 c 0
 5386 1532 5320 1724 5222 1724 c 0
 5124 1724 5059 1532 5059 860 c 0
4239 860 m 0
 4239 1446 4759 1761 5222 1761 c 0
 5685 1761 6205 1446 6205 860 c 0
 6205 274 5603 -41 5222 -41 c 0
 4759 -41 4239 274 4239 860 c 0
2970 860 m 0
 2970 188 3035 -4 3133 -4 c 0
 3231 -4 3297 188 3297 860 c 0
 3297 1532 3231 1724 3133 1724 c 0
 3035 1724 2970 1532 2970 860 c 0
2150 860 m 0
 2150 1446 2670 1761 3133 1761 c 0
 3596 1761 4116 1446 4116 860 c 0
 4116 274 3514 -41 3133 -41 c 0
 2670 -41 2150 274 2150 860 c 0
3170 3072 m 1
 3215 3072 l 1
 1090 0 l 1
 1044 0 l 1
 3170 3072 l 1
963 2212 m 0
 963 1540 1028 1348 1126 1348 c 0
 1224 1348 1290 1540 1290 2212 c 0
 1290 2884 1224 3076 1126 3076 c 0
 1028 3076 963 2884 963 2212 c 0
143 2212 m 0
 143 2798 663 3113 1126 3113 c 0
 1589 3113 2109 2798 2109 2212 c 0
 2109 1626 1507 1311 1126 1311 c 0
 663 1311 143 1626 143 2212 c 0
EndSplineSet
Validated: 1
EndChar

StartChar: uniFB00
Encoding: 64256 64256 290
GlifName: uniF_B_00
Width: 3153
VWidth: 4730
Flags: HMW
LayerCount: 2
Fore
SplineSet
41 37 m 1
 3031 37 l 1
 3031 0 l 1
 41 0 l 1
 41 37 l 1
41 1884 m 1
 3113 1884 l 1
 3113 1847 l 1
 41 1847 l 1
 41 1884 l 1
2154 2593 m 1
 2101 2732 1868 2863 1667 2863 c 0
 1339 2863 1147 2527 1147 2007 c 2
 1147 0 l 1
 410 0 l 1
 410 1892 l 2
 410 2510 930 2908 1626 2908 c 0
 1999 2908 2294 2654 2294 2380 c 0
 2294 2130 2142 1962 1896 1962 c 0
 1671 1962 1462 2101 1462 2347 c 0
 1462 2593 1622 2753 1843 2753 c 0
 2019 2753 2154 2593 2154 2593 c 1
3486 2789 m 1
 3441 2916 3265 3072 3019 3072 c 0
 2691 3072 2540 2732 2540 2212 c 2
 2540 0 l 1
 1802 0 l 1
 1802 2097 l 2
 1802 2715 2323 3113 2978 3113 c 0
 3351 3113 3604 2859 3604 2585 c 0
 3604 2335 3453 2167 3207 2167 c 0
 2982 2167 2773 2306 2773 2552 c 0
 2773 2798 2953 2957 3174 2957 c 0
 3321 2957 3457 2867 3486 2789 c 1
EndSplineSet
Validated: 5
Ligature2: "'liga' Standard Ligatures lookup 0-1" f f
LCarets2: 1 0
EndChar

StartChar: uniFB01
Encoding: 64257 64257 291
GlifName: uniF_B_01
Width: 2867
VWidth: 4730
Flags: HMW
LayerCount: 2
Fore
SplineSet
410 2097 m 2
 410 2756 930 3113 1749 3113 c 0
 2204 3113 2499 2859 2499 2585 c 0
 2499 2335 2347 2167 2101 2167 c 0
 1876 2167 1667 2306 1667 2552 c 0
 1667 2798 1847 2949 2068 2949 c 0
 2215 2949 2331 2880 2372 2765 c 1
 2302 2949 2060 3076 1749 3076 c 0
 1298 3076 1147 2732 1147 2212 c 2
 1147 0 l 1
 410 0 l 1
 410 2097 l 2
41 37 m 1
 2785 37 l 1
 2785 0 l 1
 41 0 l 1
 41 37 l 1
1720 1847 m 1
 41 1847 l 1
 41 1884 l 1
 2499 1884 l 1
 2499 0 l 1
 1720 0 l 1
 1720 1847 l 1
EndSplineSet
Validated: 5
Ligature2: "'liga' Standard Ligatures lookup 0-1" f i
LCarets2: 1 0
EndChar

StartChar: uniFB02
Encoding: 64258 64258 292
GlifName: uniF_B_02
Width: 3194
VWidth: 4730
Flags: HMW
LayerCount: 2
Fore
SplineSet
41 37 m 1
 3133 37 l 1
 3133 0 l 1
 41 0 l 1
 41 37 l 1
41 1884 m 1
 1720 1884 l 1
 1720 1847 l 1
 41 1847 l 1
 41 1884 l 1
1987 2990 m 1
 2765 3154 l 1
 2765 0 l 1
 1987 0 l 1
 1987 2990 l 1
2105 2769 m 1
 2060 2904 1876 3072 1626 3072 c 0
 1298 3072 1147 2732 1147 2212 c 2
 1147 0 l 1
 410 0 l 1
 410 2097 l 2
 410 2715 930 3113 1585 3113 c 0
 1958 3113 2212 2859 2212 2585 c 0
 2212 2335 2061 2167 1815 2167 c 0
 1590 2167 1380 2306 1380 2552 c 0
 1380 2798 1540 2957 1761 2957 c 0
 1986 2957 2105 2769 2105 2769 c 1
EndSplineSet
Validated: 5
Ligature2: "'liga' Standard Ligatures lookup 0-1" f l
LCarets2: 1 0
EndChar

StartChar: uniFB03
Encoding: 64259 64259 293
GlifName: uniF_B_03
Width: 4177
VWidth: 4730
Flags: HMW
LayerCount: 2
Fore
SplineSet
1720 2097 m 2
 1720 2756 2241 3113 3060 3113 c 0
 3515 3113 3809 2859 3809 2585 c 0
 3809 2335 3658 2167 3412 2167 c 0
 3187 2167 2978 2306 2978 2552 c 0
 2978 2798 3150 2949 3371 2949 c 0
 3551 2949 3653 2863 3682 2765 c 1
 3608 2945 3371 3072 3060 3072 c 0
 2609 3072 2458 2732 2458 2212 c 2
 2458 0 l 1
 1720 0 l 1
 1720 2097 l 2
41 37 m 1
 4096 37 l 1
 4096 0 l 1
 41 0 l 1
 41 37 l 1
410 1892 m 2
 410 2506 930 2908 1626 2908 c 0
 1999 2908 2294 2654 2294 2380 c 0
 2294 2130 2142 1962 1896 1962 c 0
 1671 1962 1462 2101 1462 2347 c 0
 1462 2593 1622 2753 1843 2753 c 0
 2019 2753 2126 2642 2126 2642 c 1
 2048 2761 1876 2863 1667 2863 c 0
 1339 2863 1147 2527 1147 2007 c 2
 1147 0 l 1
 410 0 l 1
 410 1892 l 2
3031 1847 m 1
 41 1847 l 1
 41 1884 l 1
 3809 1884 l 1
 3809 0 l 1
 3031 0 l 1
 3031 1847 l 1
EndSplineSet
Validated: 5
Ligature2: "'liga' Standard Ligatures lookup 0-1" f f i
LCarets2: 2 0 0
EndChar

StartChar: uniFB04
Encoding: 64260 64260 294
GlifName: uniF_B_04
Width: 4587
VWidth: 4730
Flags: HMW
LayerCount: 2
Fore
SplineSet
41 37 m 1
 4526 37 l 1
 4526 0 l 1
 41 0 l 1
 41 37 l 1
41 1884 m 1
 3113 1884 l 1
 3113 1847 l 1
 41 1847 l 1
 41 1884 l 1
3379 2990 m 1
 4157 3154 l 1
 4157 0 l 1
 3379 0 l 1
 3379 2990 l 1
2130 2642 m 1
 2052 2761 1868 2863 1667 2863 c 0
 1339 2863 1147 2527 1147 2007 c 2
 1147 0 l 1
 410 0 l 1
 410 1892 l 2
 410 2506 930 2908 1626 2908 c 0
 1999 2908 2294 2654 2294 2380 c 0
 2294 2130 2142 1962 1896 1962 c 0
 1671 1962 1462 2101 1462 2347 c 0
 1462 2593 1622 2753 1843 2753 c 0
 1990 2753 2130 2642 2130 2642 c 1
3486 2793 m 1
 3425 2961 3207 3076 3019 3076 c 0
 2691 3076 2540 2732 2540 2212 c 2
 2540 0 l 1
 1802 0 l 1
 1802 2097 l 2
 1802 2715 2323 3113 2978 3113 c 0
 3351 3113 3604 2859 3604 2585 c 0
 3604 2335 3453 2167 3207 2167 c 0
 2982 2167 2773 2306 2773 2552 c 0
 2773 2798 2933 2957 3154 2957 c 0
 3379 2957 3486 2793 3486 2793 c 1
EndSplineSet
Validated: 5
Ligature2: "'liga' Standard Ligatures lookup 0-1" f f l
LCarets2: 2 0 0
EndChar

StartChar: ogonek
Encoding: 731 731 295
GlifName: ogonek
Width: 2252
Flags: HMW
LayerCount: 2
Fore
SplineSet
1692 -545 m 1
 1631 -660 1553 -844 1139 -844 c 0
 807 -844 573 -738 573 -492 c 0
 573 -164 1057 74 1430 176 c 1
 1438 152 l 1
 1393 123 1282 -49 1282 -332 c 0
 1282 -606 1368 -713 1466 -713 c 0
 1552 -713 1610 -638 1663 -532 c 1
 1692 -545 l 1
EndSplineSet
Validated: 1
EndChar

StartChar: dotlessi
Encoding: 305 305 296
GlifName: dotlessi
Width: 1515
VWidth: 4730
Flags: HMW
LayerCount: 2
Fore
SplineSet
82 37 m 1
 1434 37 l 1
 1434 0 l 1
 82 0 l 1
 82 37 l 1
369 1847 m 1
 82 1847 l 1
 82 1884 l 1
 1147 1884 l 1
 1147 0 l 1
 369 0 l 1
 369 1847 l 1
EndSplineSet
Validated: 5
EndChar

StartChar: uni0237
Encoding: 567 567 297
GlifName: uni0237
Width: 1503
VWidth: 4730
Flags: HMW
LayerCount: 2
Fore
SplineSet
1208 1884 m 1
 1208 -49 l 2
 1208 -586 688 -1065 74 -1065 c 0
 -340 -1065 -676 -852 -676 -541 c 0
 -676 -291 -476 -119 -238 -119 c 0
 -13 -119 197 -258 197 -504 c 0
 197 -737 37 -897 -254 -897 c 0
 -418 -897 -508 -803 -524 -705 c 1
 -495 -861 -279 -1016 0 -1016 c 0
 492 -1016 418 -430 418 90 c 2
 430 1847 l 1
 61 1847 l 1
 61 1884 l 1
 1208 1884 l 1
EndSplineSet
Validated: 37
EndChar

StartChar: kgreenlandic
Encoding: 312 312 306
GlifName: kgreenlandic
Width: 2961
VWidth: 4730
Flags: HMW
LayerCount: 2
Fore
SplineSet
2675 0 m 1
 1720 0 l 1
 1012 1110 l 1
 2208 1884 l 1
 2265 1884 l 1
 1634 1466 l 1
 2675 0 l 1
1491 37 m 1
 2830 37 l 1
 2830 0 l 1
 1491 0 l 1
 1491 37 l 1
2568 1847 m 1
 1655 1847 l 1
 1655 1884 l 1
 2568 1884 l 1
 2568 1847 l 1
61 37 m 1
 1372 37 l 1
 1372 0 l 1
 61 0 l 1
 61 37 l 1
430 1847 m 1
 61 1847 l 1
 61 1884 l 1
 1208 1884 l 1
 1208 0 l 1
 430 0 l 1
 430 1847 l 1
EndSplineSet
Validated: 5
EndChar

StartChar: breve
Encoding: 728 728 307
GlifName: breve
Width: 1310
VWidth: 4730
Flags: HMW
LayerCount: 2
Fore
SplineSet
160 3109 m 1
 160 2929 434 2888 655 2888 c 0
 876 2888 1151 2929 1151 3109 c 1
 1188 3109 l 1
 1188 2572 983 2335 655 2335 c 0
 327 2335 123 2572 123 3109 c 1
 160 3109 l 1
EndSplineSet
Validated: 1
EndChar

StartChar: thorn
Encoding: 254 254 318
GlifName: thorn
Width: 2756
VWidth: 4730
Flags: HMW
LayerCount: 2
Fore
SplineSet
1098 942 m 0
 1098 1565 1327 1921 1765 1921 c 0
 2211 1921 2634 1556 2634 942 c 0
 2634 328 2211 -41 1765 -41 c 0
 1331 -41 1098 319 1098 942 c 0
1126 942 m 0
 1126 328 1392 53 1556 53 c 0
 1712 53 1753 344 1753 942 c 0
 1753 1540 1721 1827 1565 1827 c 0
 1389 1827 1126 1556 1126 942 c 0
61 -987 m 1
 1413 -987 l 1
 1413 -1024 l 1
 61 -1024 l 1
 61 -987 l 1
348 3035 m 1
 61 3035 l 1
 61 3072 l 1
 1126 3072 l 1
 1126 -1024 l 1
 348 -1024 l 1
 348 3035 l 1
EndSplineSet
Validated: 5
EndChar

StartChar: Thorn
Encoding: 222 222 319
GlifName: T_horn
Width: 3010
Flags: HMW
LayerCount: 2
Fore
SplineSet
430 3072 m 1
 1311 3072 l 1
 1311 0 l 1
 430 0 l 1
 430 3072 l 1
61 37 m 1
 1679 37 l 1
 1679 0 l 1
 61 0 l 1
 61 37 l 1
61 3072 m 1
 1679 3072 l 1
 1679 3035 l 1
 61 3035 l 1
 61 3072 l 1
1761 737 m 2
 1229 737 l 1
 1229 774 l 1
 1475 774 l 2
 1868 774 1925 1232 1925 1597 c 0
 1925 1962 1868 2421 1475 2421 c 2
 1229 2421 l 1
 1229 2458 l 1
 1761 2458 l 2
 2502 2458 2867 2129 2867 1597 c 0
 2867 1065 2502 737 1761 737 c 2
EndSplineSet
Validated: 5
EndChar

StartChar: Lslash
Encoding: 321 321 324
GlifName: L_slash
Width: 2703
Flags: HMW
LayerCount: 2
Fore
SplineSet
61 1475 m 1
 1884 2376 l 1
 1884 2331 l 1
 61 1430 l 1
 61 1475 l 1
EndSplineSet
Refer: 23 76 N 1 0 0 1 0 0 2
EndChar

StartChar: lslash
Encoding: 322 322 325
GlifName: lslash
Width: 1609
VWidth: 4730
Flags: HMW
LayerCount: 2
Fore
SplineSet
49 1475 m 1
 1626 2376 l 1
 1626 2331 l 1
 49 1430 l 1
 49 1475 l 1
EndSplineSet
Refer: 49 108 N 1 0 0 1 0 0 2
Validated: 5
EndChar

StartChar: eth
Encoding: 240 240 329
GlifName: eth
Width: 2703
VWidth: 4730
Flags: HMW
LayerCount: 2
Fore
SplineSet
614 2580 m 1
 2540 2580 l 1
 2540 2544 l 1
 614 2544 l 1
 614 2580 l 1
2499 1270 m 0
 2499 410 1994 -41 1294 -41 c 0
 594 -41 123 410 123 1024 c 0
 123 1720 647 2028 1143 2028 c 0
 1520 2028 1585 1667 1585 1147 c 1
 1556 1147 l 1
 1556 1761 1425 1937 1290 1937 c 0
 1130 1937 1065 1778 1065 1024 c 0
 1065 352 1081 -4 1282 -4 c 0
 1483 -4 1556 393 1556 1147 c 1
 1569 1417 l 1
 1569 2122 1184 3088 430 3088 c 1
 430 3113 l 1
 1626 3113 2499 2339 2499 1270 c 0
EndSplineSet
Validated: 5
EndChar

StartChar: OE
Encoding: 338 338 330
GlifName: O_E_
Width: 4239
Flags: HMW
LayerCount: 2
Fore
SplineSet
1679 3035 m 1025,0,0
1126 1536 m 0,0,0
 1126 668 1294 37 1679 37 c 1,0,0
 1556 0 l 1,0,0
 725 0 164 623 164 1536 c 0,0,0
 164 2449 725 3072 1556 3072 c 1,0,0
 1679 3035 l 1,0,0
 1294 3035 1126 2404 1126 1536 c 0,0,0
EndSplineSet
Refer: 16 69 N 1 0 0 1 1495 0 2
Validated: 5
EndChar

StartChar: germandbls
Encoding: 223 223 332
GlifName: germandbls
Width: 3526
VWidth: 4730
Flags: HMW
LayerCount: 2
Fore
SplineSet
1896 1651 m 1
 1896 1679 l 1
 2261 1679 2335 2077 2335 2339 c 0
 2335 2634 2240 3080 1855 3080 c 0
 1388 3080 1290 2552 1290 1970 c 2
 1290 0 l 1
 430 0 l 1
 430 2011 l 2
 430 2802 1228 3113 1896 3113 c 0
 2482 3113 3240 2884 3240 2380 c 0
 3240 1888 2719 1651 1896 1651 c 1
61 37 m 1
 1659 37 l 1
 1659 0 l 1
 61 0 l 1
 61 37 l 1
3363 778 m 0
 3363 205 2794 -41 2216 -41 c 0
 1761 -41 1446 262 1446 721 c 0
 1446 1012 1680 1151 1905 1151 c 0
 2110 1151 2331 1028 2331 758 c 0
 2331 504 2093 369 1892 369 c 0
 1749 369 1561 455 1520 594 c 1
 1545 250 1844 12 2114 12 c 0
 2397 12 2458 393 2458 655 c 0
 2458 1040 2424 1642 1896 1642 c 1
 1896 1671 l 1
 2883 1671 3363 1310 3363 778 c 0
EndSplineSet
Validated: 5
EndChar

StartChar: circumflex
Encoding: 710 710 335
GlifName: circumflex
Width: 1904
Flags: HMW
LayerCount: 2
Fore
SplineSet
950 2765 m 1
 225 2478 l 1
 205 2499 l 1
 737 3154 l 1
 1167 3154 l 1
 1700 2499 l 1
 1679 2478 l 1
 950 2765 l 1
EndSplineSet
Validated: 1
EndChar

StartChar: caron
Encoding: 711 711 336
GlifName: caron
Width: 1904
Flags: HMW
LayerCount: 2
Fore
SplineSet
954 2929 m 1
 1679 3215 l 1
 1700 3195 l 1
 1167 2540 l 1
 737 2540 l 1
 205 3195 l 1
 225 3215 l 1
 954 2929 l 1
EndSplineSet
Validated: 1
EndChar

StartChar: pi
Encoding: 960 960 337
GlifName: pi
Width: 2789
VWidth: 4730
Flags: HMW
LayerCount: 2
Fore
SplineSet
2646 422 m 1
 2552 135 2380 -41 1999 -41 c 0
 1643 -41 1417 98 1417 381 c 2
 1417 1720 l 1
 2195 1720 l 1
 2195 324 l 2
 2195 242 2232 156 2355 156 c 0
 2445 156 2543 241 2621 438 c 1
 2646 422 l 1
590 -41 m 0
 340 -41 143 94 143 319 c 0
 143 802 971 541 971 1143 c 2
 971 1843 l 1
 1200 1843 l 1
 1200 995 l 2
 1200 348 991 -41 590 -41 c 0
2564 1884 m 1
 2564 1106 l 1
 205 1106 l 1
 205 799 l 1
 168 799 l 1
 168 1884 l 1
 2564 1884 l 1
EndSplineSet
Validated: 5
EndChar

StartChar: uni1E9E
Encoding: 7838 7838 338
GlifName: uni1E_9E_
Width: 4018
VWidth: 4730
Flags: HMW
LayerCount: 2
Fore
SplineSet
61 37 m 1
 1700 37 l 1
 1700 0 l 1
 61 0 l 1
 61 37 l 1
2867 1569 m 1
 2691 1598 2195 1696 2019 1700 c 1
 3035 2974 l 1
 2920 3015 2691 3068 2429 3068 c 0
 1552 3068 1331 2592 1331 1765 c 2
 1331 0 l 1
 430 0 l 1
 430 1806 l 2
 430 2719 1311 3113 2429 3113 c 0
 3056 3113 3567 2842 3731 2666 c 1
 2867 1569 l 1
1663 578 m 1
 1737 291 2065 25 2462 25 c 0
 2847 25 2949 352 2949 860 c 0
 2949 1286 2711 1663 2019 1663 c 1
 2019 1700 l 1
 3334 1700 3854 1413 3854 881 c 0
 3854 308 3285 -41 2626 -41 c 0
 1921 -41 1577 385 1577 762 c 0
 1577 1053 1782 1253 2048 1253 c 0
 2294 1253 2474 1073 2474 803 c 0
 2474 549 2257 369 2015 369 c 0
 1839 369 1708 488 1663 578 c 1
EndSplineSet
Validated: 5
EndChar

StartChar: uni203D
Encoding: 8253 8253 339
GlifName: uni203D_
Width: 2949
Flags: HMW
LayerCount: 2
Fore
SplineSet
1827 2269 m 0
 1782 1876 1442 1426 1442 1139 c 1
 1401 1139 l 1
 1401 1426 1143 1876 1098 2269 c 0
 1094 2298 1094 2322 1094 2347 c 0
 1094 2462 1188 2654 1462 2654 c 0
 1736 2654 1831 2462 1831 2347 c 0
 1831 2322 1831 2298 1827 2269 c 0
246 2339 m 0
 246 2716 672 3113 1458 3113 c 0
 2076 3113 2744 2826 2744 2253 c 0
 2744 1680 1999 1372 1421 1372 c 1
 1421 1401 l 1
 1736 1401 2044 1864 2044 2294 c 0
 2044 2679 1810 3043 1364 3043 c 0
 766 3043 414 2761 348 2519 c 1
 373 2601 508 2703 684 2703 c 0
 926 2703 1040 2457 1040 2314 c 0
 1040 2027 827 1880 643 1880 c 0
 438 1880 246 2048 246 2339 c 0
EndSplineSet
Refer: 1 46 N 1 0 0 1 733 0 2
Validated: 5
EndChar

StartChar: R.alt
Encoding: 65536 -1 340
GlifName: R_.alt
Width: 3194
Flags: HMW
LayerCount: 2
Fore
SplineSet
1577 1569 m 2
 799 1569 l 1
 799 1597 l 1
 1372 1597 l 2
 1765 1597 1946 1786 1946 2314 c 0
 1946 2842 1765 3035 1372 3035 c 2
 61 3035 l 1
 61 3072 l 1
 1577 3072 l 2
 2318 3072 2847 2846 2847 2314 c 0
 2847 1782 2359 1569 1577 1569 c 2
61 37 m 1
 1679 37 l 1
 1679 0 l 1
 61 0 l 1
 61 37 l 1
430 3072 m 1
 1311 3072 l 1
 1311 0 l 1
 430 0 l 1
 430 3072 l 1
3154 0 m 1
 3088 0 2687 0 2540 0 c 0
 1340 0 2401 1556 1352 1556 c 2
 799 1556 l 1
 799 1577 l 1
 1925 1577 l 2
 3289 1577 2425 37 3011 37 c 0
 3097 37 3097 37 3154 37 c 1
 3154 0 l 1
EndSplineSet
Validated: 5
EndChar

StartChar: J.alt
Encoding: 65537 -1 341
GlifName: J_.alt
Width: 2973
Flags: HMW
LayerCount: 2
Back
SplineSet
1191.93554688 3072 m 5
 2482.17578125 3072 l 5
 2482.17578125 2990.08007812 l 5
 1191.93554688 2990.08007812 l 5
 1191.93554688 3072 l 5
1683.45605469 3072 m 5
 2072.57617188 3072 l 5
 2072.57617188 1146.87988281 l 6
 2072.57617188 491.51953125 1748.9921875 -40.9599609375 1089.53613281 -40.9599609375 c 4
 610.303710938 -40.9599609375 409.599609375 307.200195312 409.599609375 593.919921875 c 4
 409.599609375 847.872070312 561.15234375 983.040039062 724.9921875 983.040039062 c 4
 868.3515625 983.040039062 995.328125 909.311523438 995.328125 720.896484375 c 4
 995.328125 577.536132812 864.255859375 462.84765625 724.9921875 462.84765625 c 4
 638.975585938 462.84765625 536.576171875 516.095703125 495.616210938 585.727539062 c 5
 499.711914062 335.872070312 655.360351562 40.9599609375 1089.53613281 40.9599609375 c 4
 1585.15234375 40.9599609375 1683.45605469 450.559570312 1683.45605469 1024 c 6
 1683.45605469 3072 l 5
EndSplineSet
Fore
SplineSet
1090 3072 m 1
 2912 3072 l 1
 2912 3035 l 1
 1090 3035 l 1
 1090 3072 l 1
1622 3072 m 1
 2503 3072 l 1
 2503 696 l 1
 2257 204 1892 -123 1110 -123 c 0
 508 -123 61 307 61 758 c 0
 61 1135 336 1352 623 1352 c 0
 889 1352 1098 1155 1098 864 c 0
 1098 598 893 377 594 377 c 0
 352 377 213 495 135 610 c 1
 213 229 618 -74 1028 -74 c 0
 1401 -74 1622 205 1622 778 c 2
 1622 3072 l 1
EndSplineSet
Validated: 5
EndChar

StartChar: four.alt
Encoding: 65538 -1 342
GlifName: four.alt
Width: 2928
VWidth: 4730
Flags: HMW
LayerCount: 2
Fore
SplineSet
2662 37 m 1
 2662 0 l 1
 1085 0 l 1
 1085 37 l 1
 2662 37 l 1
2355 2040 m 1
 2355 -4 l 1
 1475 -4 l 1
 1475 1753 l 1
 1721 1753 2191 1917 2355 2040 c 1
131 819 m 1
 2724 819 l 1
 2724 778 l 1
 61 778 l 1
 634 1597 1229 2458 1311 3072 c 1
 2286 3072 l 1
 2208 2273 709 1614 131 819 c 1
EndSplineSet
Validated: 5
EndChar

StartChar: fj.lig
Encoding: 65539 -1 343
GlifName: fj.lig
Width: 2772
VWidth: 4730
Flags: HMW
LayerCount: 2
Back
SplineSet
40.9599609375 81.919921875 m 5
 1515.51953125 81.919921875 l 5
 1515.51953125 0 l 5
 40.9599609375 0 l 5
 40.9599609375 81.919921875 l 5
409.599609375 2097.15234375 m 2
 409.599609375 2756.60839844 929.791992188 3112.95996094 1748.9921875 3112.95996094 c 0
 2203.6484375 3112.95996094 2498.55957031 2859.0078125 2498.55957031 2584.57617188 c 0
 2498.55957031 2334.71972656 2347.0078125 2166.78417969 2101.24804688 2166.78417969 c 0
 1875.96777344 2166.78417969 1667.07226562 2306.04785156 1667.07226562 2551.80761719 c 0
 1667.07226562 2797.56835938 1826.81640625 2949.12011719 2048 2949.12011719 c 0
 2146.30371094 2949.12011719 2199.55175781 2916.3515625 2199.55175781 2916.3515625 c 1
 2134.015625 2957.31152344 1982.46386719 3026.94433594 1748.9921875 3026.94433594 c 0
 1298.43164062 3026.94433594 1146.87988281 2732.03222656 1146.87988281 2211.83984375 c 2
 1146.87988281 0 l 1
 409.599609375 0 l 1
 409.599609375 2097.15234375 l 2
2498.55957031 1884.16015625 m 1
 2498.55957031 -49.15234375 l 2
 2498.55957031 -585.727539062 1978.36816406 -1064.95996094 1363.96777344 -1064.95996094 c 0
 950.272460938 -1064.95996094 614.400390625 -872.448242188 614.400390625 -557.055664062 c 0
 614.400390625 -307.200195312 806.912109375 -118.784179688 1052.671875 -118.784179688 c 0
 1277.95214844 -118.784179688 1486.84765625 -258.047851562 1486.84765625 -503.807617188 c 0
 1486.84765625 -749.568359375 1327.10351562 -897.024414062 1024 -897.024414062 c 0
 1011.71191406 -897.024414062 995.328125 -897.024414062 995.328125 -897.024414062 c 1
 1040.38378906 -917.50390625 1122.30371094 -966.65625 1302.52832031 -966.65625 c 0
 1794.04785156 -966.65625 1720.3203125 -438.272460938 1720.3203125 81.919921875 c 2
 1720.3203125 1802.24023438 l 1
 40.9599609375 1802.24023438 l 1
 40.9599609375 1884.16015625 l 1
 2498.55957031 1884.16015625 l 1
EndSplineSet
Fore
SplineSet
41 37 m 1
 1516 37 l 1
 1516 0 l 1
 41 0 l 1
 41 37 l 1
2499 -49 m 2
 2499 -586 1978 -1065 1364 -1065 c 0
 950 -1065 614 -872 614 -557 c 0
 614 -307 807 -119 1053 -119 c 0
 1278 -119 1487 -258 1487 -504 c 0
 1487 -750 1303 -897 1049 -897 c 0
 902 -897 811 -815 770 -721 c 1
 807 -885 1024 -1016 1303 -1016 c 0
 1795 -1016 1720 -438 1720 82 c 2
 1720 1847 l 1
 41 1847 l 1
 41 1884 l 1
 2499 1884 l 1
 2499 -49 l 2
2339 2839 m 1
 2245 2958 2060 3072 1749 3072 c 0
 1298 3072 1147 2732 1147 2212 c 2
 1147 0 l 1
 410 0 l 1
 410 2097 l 2
 410 2756 930 3113 1749 3113 c 0
 2204 3113 2499 2859 2499 2585 c 0
 2499 2335 2347 2167 2101 2167 c 0
 1876 2167 1667 2306 1667 2552 c 0
 1667 2798 1847 2949 2068 2949 c 0
 2195 2949 2294 2888 2339 2839 c 1
EndSplineSet
Validated: 37
LCarets2: 1 0
Ligature2: "'liga' Standard Ligatures lookup 0-1" f j
EndChar

StartChar: uni2116
Encoding: 8470 8470 344
GlifName: uni2116
Width: 4939
Flags: HW
LayerCount: 2
Fore
SplineSet
3789 2335 m 0
 3789 1868 3850 1593 4010 1593 c 0
 4170 1593 4231 1868 4231 2335 c 0
 4231 2802 4170 3076 4010 3076 c 0
 3850 3076 3789 2802 3789 2335 c 0
3195 2335 m 0
 3195 2867 3555 3113 4010 3113 c 0
 4465 3113 4825 2867 4825 2335 c 0
 4825 1803 4465 1556 4010 1556 c 0
 3555 1556 3195 1803 3195 2335 c 0
EndSplineSet
Refer: 85 45 N 1 0 0 1 3273 164 2
Refer: 25 78 N 1 0 0 1 0 0 2
Validated: 5
EndChar

StartChar: Euro
Encoding: 8364 8364 345
GlifName: E_uro
Width: 3031
Flags: HW
LayerCount: 2
Fore
SplineSet
2716 2736 m 1
 2614 2888 2343 3056 2003 3056 c 0
 1516 3056 1393 2413 1393 1536 c 0
 1393 578 1540 45 1946 45 c 0
 2335 45 2655 356 2757 729 c 1
 2798 729 l 1
 2692 332 2352 -41 1774 -41 c 0
 951 -41 389 594 389 1536 c 0
 389 2396 934 3113 1880 3113 c 0
 2503 3113 2888 2777 2888 2441 c 0
 2888 2150 2695 1982 2449 1982 c 0
 2224 1982 2011 2130 2011 2417 c 0
 2011 2683 2207 2847 2449 2847 c 0
 2564 2847 2675 2785 2716 2736 c 1
EndSplineSet
Refer: 88 61 N 1 0 0 1 -123 -287 2
Validated: 524293
EndChar
